<svg id="Objects" xmlns="http://www.w3.org/2000/svg" xmlns:xlink="http://www.w3.org/1999/xlink" viewBox="0 0 831.22 495.07">
  <defs>
    <style>
      .cls-1 {
        fill: none;
      }

      .cls-2 {
        clip-path: url(#clip-path);
      }

      .cls-3 {
        fill: #000018;
      }

      .cls-4 {
        fill-rule: evenodd;
      }
    </style>
    <clipPath id="clip-path" transform="translate(16.23 -59.93)">
      <rect class="cls-1" y="-273" width="800" height="800"/>
    </clipPath>
  </defs>
  <title>12132-NO7ZG1</title>
  <g id="crowd">
    <g class="cls-2">
      <g>
        <g id="man21">
          <path d="M531.9,349c-0.64-1.39-1.41-2.81-3.14-2.5a16.37,16.37,0,0,1-4.47.53c-2.57-.18-5.95-0.08-8-1.83,2.47-3.36-2.83-8.42-4.79-11.1-2.67-3.64-5-7.61-8.13-10.91-5.94-6.3-13.19-11.53-17.61-19.14-2.28-3.92-4.29-8.05-6.66-11.91-2.11-3.43-4.23-6.67-6.62-9.93s-5.25-6.12-7.87-9.15a57.19,57.19,0,0,0-9.42-8.63c-2.46-3-3-7.26-3.33-10.89-0.18-2.12.45-3.87,0.17-6s-1.4-3.38-1.82-5.36c-0.49-2.37,4.74-7.19,6.55-8.63,3.61-2.9,8-2.27,12.3-1.17,2.46,0.64,4.8.26,7.35,0.52,2.19,0.22,4.37.59,6.57,0.67,4.33,0.15,8.06-2.69,12-4.36,3.33-1.42,9.21-4.51,12.72-3.44,2.5,0.77,8.78-3,8.07,1.66,3,1.51.75-3.27,0.57-3.86,0.94,1.35,1.85,1.11,1.49,3.09s1,0.72,1.6.36c0.75,0.77,1.44-.54,1.9-1.19,0.69-1,.45-1.39.09-2.46a4.6,4.6,0,0,0-3-3.22c2.77-1.57,3.11,1.66,5.5,1.87-0.35-7.73-12.37-2.9-16.37-2.1-3.39.68-6.74,1.59-10.17,2.13s-6.65.39-10,1.61a19.92,19.92,0,0,1-9.23,1.28,26.17,26.17,0,0,0-3.72-3.23,15.75,15.75,0,0,1-4.27-1.53c-2.73-1.7-5.33-3.59-8.45-4.52-2.74-.82-6,0.18-8.49-1.53-1.67-1.14-.64-5.15.9-6.22,1.13-.78,2.88-0.57,4.14-1.35a11.05,11.05,0,0,0,3-2.93c0.9-1.21.84-2.06,1.32-3.42,0.32-.91.17-1.43,0.89-2.12a1.89,1.89,0,0,0,.75-1.22c-0.08-.77-0.83-1-1.39-1.29q-0.38-1-.79-1.91a16.4,16.4,0,0,0-2-3.46c-3.52-2.76-9.77-2.78-13.61-.71-2.51,1.35-3.28,4.11-3.82,6.74-0.57,2.81.72,5.34-1.16,7.57-0.64-2.44-2.22.75-3.68-.54s-1.44-3.34-2.3-4.9c-1.7-3.08-4.79-4.8-6.69-7.62-1.34-2-2.75-3.95-4.09-5.94-1-1.44-2.16-2.27-3.19-3.57,0.12-.78-0.08-1.54,0-2.31,0.5-.9,1-1.81,1.43-2.72,0.77-1.55,1.51-3.12,2.25-4.68A74.11,74.11,0,0,1,431,160.74c1-1.49,2.21-3.48,4-4a11.87,11.87,0,0,0,3.91-1.86,9.18,9.18,0,0,0,3-4.06c0-1.5-.79-2.44.49-3.59,1-.91,2.31-1.44,3.3-2.37,0.41-.39,2-2.68.55-2.56-1.69.62-2.91,2.13-4.63,2.67-0.5-.84-0.07-2.46-1.68-2.07s-0.79-.49-2.18-0.81c-2,.5-3.34.35-5.11,1.77-3.63,2.9-4.13,8.17-6.49,11.95-4.76,7.64-10.88,14.39-14.52,22.7,0.41,1.76.32,3.73,0.94,5.59a32.83,32.83,0,0,1,1.62,5.72c-1.56,1.91,2.48,7.13,3.16,9.07,3,8.69,2.43,18.3,1.21,27.26-0.67,4.87-1.34,9.51-1,14.43a22,22,0,0,1,.15,5.58c-0.3,1.91-.76,3.79-1.07,5.71a19.4,19.4,0,0,0,.1,6.15,41.36,41.36,0,0,1-2.12,5.49q-3.2,6.33-6.22,12.76c-1.94,4.13-4,8.23-5.66,12.5s-2.11,8.48-3.41,12.68c-1.45,4.68.42,7.31,2.06,11.52,1.48,3.81,1.18,8,2,12a70.25,70.25,0,0,0,3.81,13.65c0.77,1.81,1.81,3.35,2.17,5.29,0.32,1.72-.58,3.57.13,5.27a4.16,4.16,0,0,0-2.08.26c0.17,0.47,1.48-.48,1.94,0a38.1,38.1,0,0,0-4.39,1c-0.25.09-2.33,0.55-2.12,0.34-1.09,2.38-4.83,3.35-7.11,3.64-1.78.22-3.33,0-4.12,1.92a4.25,4.25,0,0,0,.45,4.07c1.31,1.7,4.87,1.88,6.87,2.11a35.43,35.43,0,0,0,9,0c2.62-.37,4.64-1.2,7.33-1,1.68,0.12,3.37.3,5.06,0.34s3.42,0.38,3.6-1.46,0.48-3.62.68-5.44c0.08-.71.14-1.43,0.17-2.14a3.25,3.25,0,0,0,1.72-.4,7.61,7.61,0,0,0,.74-4.27c-0.09-1.81.29-3.39,0.34-5.21a32.23,32.23,0,0,0-1.56-10c-1-3.67-1.37-7.46-2.32-11.13-0.74-2.87-2.18-5.48-3.2-8.24-0.94-2.51-2.75-6.29-.3-8.32,2.08-1.72,3-6.7,4-9.2,1.38-3.67,3.84-7,5.75-10.45,1.24-3.07,2.28-6.37,4.37-9,0,0.71.57,0.9,1,1.27a0.83,0.83,0,0,1,.16-0.72,15.09,15.09,0,0,0,3.26,3.58,23.66,23.66,0,0,1,3.16,3.84,36.37,36.37,0,0,0,7.48,6.89c5.45,4,9,10.11,13.8,14.9,5.15,5.18,8.81,11.3,13.67,16.69,4.64,5.15,9.15,10.23,14.05,15.16,2.42,2.44,4.57,5.15,7.21,7.36a21.74,21.74,0,0,0,2.55,1.86,2.44,2.44,0,0,0,.51,1.79c1.41,2.09,3.08-1.45,3.87,1.13,0.57,1.85,1.13,3.71,1.78,5.54,0.71,2,1.13,2.71,3.39,2.47,1.87-.2,1.88.09,3.57,0.82a4.89,4.89,0,0,0,3.66.2,34.89,34.89,0,0,0,9.12-4.52C528.11,353.78,532.81,351,531.9,349ZM519.45,223.56c0.44,1.47.58,0.69,0.1,2a6,6,0,0,1-.38-2,12.79,12.79,0,0,0-2-1.69C517.88,221.36,519.36,223.24,519.45,223.56Zm-79.89-73.21c0.18-.37.14,0.36-0.13,0.23C439.17,150.85,439.49,150.45,439.57,150.35ZM438.89,147c0.17-.47.11,0.49,0,0h0Zm-1.08-2.49h0ZM406.49,350.07l0,0Z" transform="translate(16.23 -59.93)"/>
        </g>
        <path id="man20" d="M64.26,201.17c1.9,0.34,3.77.86,5.7,1.1,1.48,0.19,4.7.68,5.82-.7,0.71,0.77.62,0.88,1.85,0.72a14.42,14.42,0,0,1,2.8.13,56.7,56.7,0,0,0,6.36-.16c4.68-.25,9.35.23,14,0s9.31-1.83,13.93-2.81c4.33-.92,8.1-3.29,12.44-4.14a82.9,82.9,0,0,0,.38,10.74c0.3,3.48,1.15,6.75,1.53,10.21a40.79,40.79,0,0,1,0,9.11,16.69,16.69,0,0,0,.06,4.47c0.22,1.69.49,3.26-.52,4.71a1.73,1.73,0,0,0-.41,1.45q-0.76.92-1.56,1.81c-1,1.19-2.13,2.36-3.2,3.53a68.4,68.4,0,0,0-6.57,8c-1.76,2.61-4,4.77-5.8,7.38a79.13,79.13,0,0,0-5.33,8.49c-1.27,2.47-3.07,4.62-4.21,7.16a11.78,11.78,0,0,0,.18,9.26c1,2.52,2.73,4.81,3.05,7.58,0.42,3.58.6,7.18,1,10.77a40.21,40.21,0,0,0,2.25,8.9,12.47,12.47,0,0,1,.82,4.36,38.76,38.76,0,0,0-.28,5.35c0.11,1,.49,1-0.12,1.8-0.41.52-.66,1.14-1.09,1.64a26.56,26.56,0,0,1-3.42,1.25c-2.44.76-5.09,1.38-7.18,2.92a4.46,4.46,0,0,0-2.05,3.6c-0.18,2-.08,3,2.16,3.28,3.89,0.53,8.12-.5,11.87-1.46a17.69,17.69,0,0,0,5.07-1.78,5.61,5.61,0,0,1,2.48-.85c0.55,0,.3.8,0.76,0.9,3.18-1,7.81-.68,10.23-3.31,0.09-1.56-1.07-4.18.09-5.35a4.89,4.89,0,0,0,1-4.41,5.48,5.48,0,0,1-.19-2.44,15.77,15.77,0,0,0,0-3.23c-0.19-2.24-.51-4.39-0.64-6.65a89.77,89.77,0,0,0-1.91-13.27c-0.44-2.08-.91-4.14-1.39-6.21-0.21-.94-0.24-2.08-0.95-2.78s-1.75-1.24-2.56-2c0.62-1,2.11-.35,2.92-1.24,1.16-1.28,2.24-2.63,3.29-4,1.75-2.29,3.92-4,5.86-6.17,3.66-4,6.7-8.57,10.71-12.26q0.55-.5,1.12-1c0.87-.74.89-1.19,1.85-0.35,1.34,1.18,2.7,2.35,4,3.53,2.38,2.08,4,4.65,5.94,7.17,0.8,1.05,1.85,2.07,2.06,3.38a7.54,7.54,0,0,0,1.5,3.34,54.3,54.3,0,0,0,5,5.75c1.92,1.89,4.35,2.88,6.34,4.69a42,42,0,0,0,6.36,5.15c4.94,3,7.66,7.69,10.69,12.46,3.24,5.09,7,9.78,10.67,14.59q1.28,1.69,2.52,3.43a11.91,11.91,0,0,1,3,3.45c1.17,2.61,3,4.31,5.88,3.38a26.85,26.85,0,0,1,.7,5.25c0,1.78-.62,2.84-1.21,4.46s-0.11,2.72.55,4.17c0.76,1.67,1.54,2.7,3.42,2.18,2.5-.69,4.4-2.36,6.48-3.83s5.33-4.58,5-7.31a38,38,0,0,0-.92-3.82c-0.08-.47.33-0.48,0.56-0.76a4,4,0,0,0,.16-1.74,5.32,5.32,0,0,0-1.2-4.09,13.69,13.69,0,0,0-1.54-1.82,4.32,4.32,0,0,0,.95-2.07c-0.57-2.88-3.12-4.39-4.35-6.88a14.24,14.24,0,0,0-2.42-4.06,21.26,21.26,0,0,1-3.16-4A148.71,148.71,0,0,0,201.61,285a80.8,80.8,0,0,0-6.57-6.83c-1.14-1.05-2.64-2-3.38-3.34q-1.42-2.62-3-5.14c-1.11-1.74-4.5-5-4.19-6.87,0.13-.79-2.1-3.22-2.56-3.92q-1.7-2.58-3.31-5.23-1.4-2.29-2.71-4.62c-1.11-.08-1.53-1.06-2.09-1.86-0.67-1,.53-1.79-0.29-2.85-1-1.23-2.47-1.79-3.73-2.64-1.64-2.52-3.93-4.87-4.71-7.78-1.77-2-1.46-5.29-2.18-7.71a60.88,60.88,0,0,1-2-9.34,31.44,31.44,0,0,1,3-10c2.56-5.07,6.11-12.35,11.49-14.76a17.12,17.12,0,0,1,4.12-1.3c1.63-.28,3.27,0,4.88-0.24a84.12,84.12,0,0,0,9.94-2.62,22.41,22.41,0,0,0,3.91-1.69c1.31-.64,2.06-2.21,2.86-3.45,1.78-2.73,2.92-5.89,4.89-8.48,1.61-2.11,3.58-3.91,5.32-5.91s2.73-5,4.79-6.75c1.15-1,.11-1.87,1.1-2.58a32.38,32.38,0,0,0,3.51-2.88,53.34,53.34,0,0,0,5.94-7.55c0.63-.88,1.62-2.18.34-2.89-0.73-.41.74-1.8,1.08-2.32s1.06-2.66-.32-2.28c-1.09.3-1.32,1.48-2.12,2.11-1.09.87-1.91,2.08-3.07,2.88-0.13-1.51,1.23-2.39,2-3.49,0.5-.71,2-2,1.91-2.92-0.24-1.84-2.53,0-3.11.55a6.4,6.4,0,0,0-1.44,1.37,9.09,9.09,0,0,1-2.08,2.63c-0.55-.72,1.6-4.44,1.91-5.27s1-1.82,1.23-2.81c0.35-1.26,0-2.61-1.19-1.3-3,3.23-3.45,8.24-6.82,11.2-2.69-.41-2-5.28-5.13-4.8,0.32,1.54.56,3.09,1,4.61a13,13,0,0,0,.72,2c-0.13.84-.27,1.68-0.38,2.53-0.14,1.11.14,2.67-.58,3.52a2.71,2.71,0,0,1-1.48,1.24,2.69,2.69,0,0,0-1.45,1.23,36,36,0,0,1-6.41,7.46c-1.29,1.21-2.62,2.38-3.92,3.59a12.65,12.65,0,0,0-3.12,4.29c-0.72,1.5-1.08,2.63-2.51,3.6a9.59,9.59,0,0,1-4.66,2,19.85,19.85,0,0,1-4.41-.62,48.34,48.34,0,0,1-5-.86q-2.39-.68-4.8-1.26a14.29,14.29,0,0,0-5.83.13,22.69,22.69,0,0,1-5.78.35c-1.09-.11-2.37-1.45-3.42-1,0.21-.64.35-1.3,0.6-1.93A8.63,8.63,0,0,0,160,172c0.78-.75,1.63-1.43,2.48-2.12,1.83-1.5,3.71-3.12,4.58-5.39,1-2.71.36-5.55-.88-8.05s-3-6-5.82-7.07-5.19-.24-7.77,1c-1.27.62-2.73,0.55-4,1.27-1.83,1-.2,2.2-1.27,3.75-1.33,1.94-2.88,5-2.87,7.43,0,1.33.85,2.26,0.93,3.55,0.1,1.78-1,3.58-1.63,5.25-0.34,1-.18,1.37-1.13,1.8a7.81,7.81,0,0,1-1.91.88c-1.66.36-3.33,0.77-5,1.18l-4.89,1.26c-1.77.46-4,.65-5.58,1.62-2.52,1.56-4.62,3.67-7,5.4a46.21,46.21,0,0,1-8.42,4.33c-5.79,2.59-11.79,3-18,4.13A87.92,87.92,0,0,1,82,193.44c-1.5.09-3.09-.21-4.55,0a2.23,2.23,0,0,0-1.42.7c-0.62.71-1.41,0.58-2.36,0.4-2-.39-3.4-1.89-5-3.08a2.44,2.44,0,0,0-.46,1c-0.2,1.05-.56.7-1.6,0.59a24.32,24.32,0,0,1-3.64-.67c-2.43-.62-4.79-1.55-7.27-2,0,1.45,1.36,2,2.53,2.48,1.49,0.56,3.07,1.7,4.7,1.73-1.27.61-2.71-.2-3.84,0.85a6.61,6.61,0,0,0-2.05,5c0,0.7-.11,1.4-0.16,2.1a1.44,1.44,0,0,0,1.74-.53,1.86,1.86,0,0,0,.3-1,2.46,2.46,0,0,0,1-.42,3.21,3.21,0,0,1,1.94-.81c-0.09.55-1,.92-1.32,1.32a1.69,1.69,0,0,0,.82,2.38c0.59-.18.54-0.95,0.74-1.4C62.41,201.27,63.64,201.62,64.26,201.17Zm-4.9-2.8c-0.78.83,0-.26,0,0h0ZM63,197.21a14.65,14.65,0,0,1-3.16.65c0.64-.11.22-0.71,1.12-0.67A5.93,5.93,0,0,1,63,197.21Zm0.48,2.22c-0.14,0-.33,0-0.36-0.1C63.23,199.35,63.43,199.3,63.45,199.44ZM224,148.19c0.46,0,.64-0.92,1-0.65C224.6,147.65,224.31,148.73,224,148.19ZM170.77,243a0.42,0.42,0,0,0,.48.09c0.1,0.28.5,0.77,0.18,1.05C171.37,243.84,170.55,243.41,170.77,243ZM148.17,152.3a2.76,2.76,0,0,1,2.31-1A2.32,2.32,0,0,1,148.17,152.3Zm-0.1.36c0.76,0.11,1.33-.27,1.23.76a4.5,4.5,0,0,1-1.14.78ZM108.31,320.88c-0.34.34,0.3-.38,0,0h0Z" transform="translate(16.23 -59.93)"/>
        <path id="man19" d="M195.08,357.9a18.56,18.56,0,0,1,1.83-3.35c0.85-1,1.79-2,2.57-3.11,0.32-.44,1.44-1.7.7-2.07a2.85,2.85,0,0,1-1.2-.58,8.84,8.84,0,0,1-.4-3.89,18.31,18.31,0,0,0,0-4.2c-0.23-1.6-.2-3.23-0.29-4.84-0.19-3.47-1.23-6.73-1-10.24,0.27-3.34.4-6.67,0.54-10a80.24,80.24,0,0,1,.94-10.08,33.47,33.47,0,0,1,1-4.11,9.65,9.65,0,0,0,.41-4.39,21.13,21.13,0,0,1,.87-9.34,51.93,51.93,0,0,0,1.84-8,73,73,0,0,1,1.85-8.79,22.14,22.14,0,0,0,1.21-3.78,37,37,0,0,1,.81-4.42,68.9,68.9,0,0,0,1.61-9,26.7,26.7,0,0,1,.69-8.54c0.66-2.66,1.65-5,1.84-7.77a74.56,74.56,0,0,0,0-8c-0.23-5.64-.81-11.34-0.23-17a26.24,26.24,0,0,1,.73-4.11c0.35-1.3,1-2,0-3.09a34.93,34.93,0,0,0-2.78-2.24,7.84,7.84,0,0,1-1.58-3.09,7.13,7.13,0,0,0-1.12-2.24,10.78,10.78,0,0,1-1-1.76c-0.6-1.3-1-2.66-1.54-4a47.17,47.17,0,0,1,2.07-8.83,62.52,62.52,0,0,0,2.67-19.48c-0.13-3.11.69-6.06,0.69-9.14a20.8,20.8,0,0,1,.26-4.09c0.38-1.88,1.06-.46,1.27-0.72,0.15-1-.2-2.78.77-3.47,2.16,1.65.3,6.56,1.06,8.9,0.68-3.07.84-6.57,2.59-9.28,1.68,0.61.28,3.62,0.09,4.74a20.11,20.11,0,0,0-.36,5.36c1.31-2.16,1.73-5,3.73-6.69,1.3,1.29-.3,3.31-0.74,4.61-0.6,1.79-1.48,3.57-1.42,5.5s1.94-.45,2.22-0.9c0.58-.9,1.29-1.64,2.45-1.29a15.21,15.21,0,0,1-2.7,5.84,12,12,0,0,1-2.06,2.82,3.8,3.8,0,0,0-1.73,2c-1,4.12-.55,8.57,0,12.71a15.14,15.14,0,0,1,.06,6.17c-0.26,1-.6,2-0.82,3.05s-0.64,1.84.3,2.19a43.47,43.47,0,0,1,4.72,2.59,35.9,35.9,0,0,0,5.58,2.08,10,10,0,0,0-.46-4.35c-0.51-1.28-1.68-1.62-1.94-3-0.34-1.74.61-2.86,0.48-4.44a10.34,10.34,0,0,1,.45-4.16,9.27,9.27,0,0,1,4.58-4.93,31.91,31.91,0,0,1,3.31-1.53,12.41,12.41,0,0,1,4.31-.54,10.82,10.82,0,0,1,3.82,2.45c1.26,1.19,1.63,2.73,2.12,4.36,0.29,1,.56,1.92.88,2.87a6.87,6.87,0,0,0-.09,2.15c0.12,1.28.53,2.74,0.07,4a18.16,18.16,0,0,0-.61,4.67c-0.17,1.68-1.05,2.34-2.3,3.31-1,.78-0.33,3.26.14,4.3s2.1,0.08,2.86-.33c0.67,4,6.13,4.75,9.16,6.16,3.27,1.52,8.11,3.81,9.84,7.16,2,3.85,3.78,7.87,6.39,11.36,0.75,1,2.84,3.3,2.47,4.71-0.51,1.93,1.5,2.49,2.75,3.61,1.14-.09,4.43.25,5.15,1,1,1.16,3.37,1.24,4.72,2.16,3,2,6.62,2.7,10,3.83a18.48,18.48,0,0,1,5,2.36c1.66,0.37,2.71,1.9,4.34,2.34,1,1.46,2.7,2.15,4.17,3,0.84,0.48,3.59,2.48,1,2.63,0.89,0.79-.25,1.43-1.07,1.23a14.09,14.09,0,0,1-3.22-1.82c-2.08-1.23-4.79-.56-7.05-1.74-1.46-.76-1.89-1.06-3.53-0.81-1.26.19-2.47,0-3-1.3-0.33-.87-0.86-0.54-1.77-0.54l-2.46,0c-1.62,0-3.24,0-4.87,0A32.65,32.65,0,0,1,271,245.7c-2.15-2.11-4.7-3.75-6.95-5.75a22.31,22.31,0,0,1-1.61-1.57c-0.54.63-1,.12-1.39-0.28a8.4,8.4,0,0,0-1.66-1.42q-0.56-1-1.2-1.94a53.51,53.51,0,0,0-5.7-6.82c-0.84,4.28-3.31,8.14-4.66,12.27-0.75,2.28-1.49,4.56-2,6.9-0.58,2.55,0,5.11.36,7.68,0.23,1.87,1,5,0,6.7-0.69,1.16,1.31,4.39,1.95,5.37a85.77,85.77,0,0,1,6.1,11.83c1.89,4.25,3.34,8.76,4.8,13.17s3.31,8.37,4.94,12.57c0.79,2,1.74,4,2.33,6.08a10.12,10.12,0,0,1-.55,5.56,9.89,9.89,0,0,1-6,6.13,22.59,22.59,0,0,1,3.08,11.69c0,1.81.35,4.39-1.56,5.23-1.47.64-4,1-5.42,0.1-3.1-2-5-5.32-6.23-8.75a41.3,41.3,0,0,1-1.59-6,16.5,16.5,0,0,0-1.15-2.66c-0.38-1-.77-0.93-1.64-1.46a7.81,7.81,0,0,1-3.13-3.45,8.71,8.71,0,0,1-.71-2.9c-0.06-.74.32-2-0.25-2.57-1.12-1.1-1.55-2.95-2.31-4.34a38.63,38.63,0,0,1-2-3.94,14.92,14.92,0,0,1-1.07-5.71,31.65,31.65,0,0,0-2.87-5.89c-1-1.92-1.39-4.11-2.29-6.1a21.09,21.09,0,0,0-2.76-4.53c-0.12,4.74-1.74,9.13-2.75,13.7a14.76,14.76,0,0,1-3.3,6.27,21.56,21.56,0,0,0-1.31,7.11c0.18,5.26.18,10.54-.14,15.8-0.14,2.33-.35,4.65-0.63,7s-0.3,4.54-.5,6.85a21.56,21.56,0,0,1-1,4.56c-0.35,1.12.18,2.49,0.15,3.69s-0.07,2.16-1.43,2.5-3,.09-3.1,1.57c-0.27,2.68,1.36,7.72-.79,9.67a8,8,0,0,1-1.6,1.1,6.13,6.13,0,0,1-.62,1.81,8.13,8.13,0,0,1-2.37,2.59c-2.6,2-5,2.46-8.21,2.54-1.53,0-3.06.17-4.59,0.17s-2.17-.36-2.23-1.92A14.65,14.65,0,0,1,195.08,357.9Z" transform="translate(16.23 -59.93)"/>
        <g id="man18">
          <path d="M298.07,251.35c-0.85-1-1.77-2.19-2.41-3-0.79-1.07-2.19-1.67-2.95-2.88-0.5-1.68-1.28-3.26-1.79-4.94s-0.48-3.6-.84-5.36c-0.72-3.56-2-7-2.65-10.55,0.33-2.69-.81-4.49-2.1-6.69-1-1.7-1.11-2.63-.16-4.38s2.28-2.42,3.82-3.71a38.88,38.88,0,0,0,3.74-3.71l1.76-2c0.11-.48-0.49-0.18-0.54-0.54a20.15,20.15,0,0,0,4.36-5.65c1.17-1.91,2.76-3.33,2.27-5.72-1.24-1.39-3.24-3.77-3.79-5.55-2-1.82-3.89-3.71-5.83-5.58s-3.9-3.72-6-5.44c-1.17-1-2.36-1.88-3.6-2.74-1.59-1.09-1.46-1.11-1.32-3,0.42-5.77-.54-11.47-1-17.2-3.4.19-2,6.51-2.24,8.62-0.12.94-.41,6-2,3.68-0.52-.75-0.75-2.08-1.87-1.74-1.32.41-1,1.24-.37,2.11,1.53,2,1.13,4.56,3,6.21,1,0.92,1.35,2.32,2.28,3.47s2,2.51,3,3.78a175.24,175.24,0,0,0,12.31,14.78,25.85,25.85,0,0,0-3.61,3.2c-1.24,1.13-2.27.73-3.8,1.63l-0.78.45c-1.3-1.09.55-3.05-1.34-3.85,0.08-.44-0.65-0.54-0.68-1a4,4,0,0,0,1.25-2.48,3.08,3.08,0,0,0-1.65-2.91c-0.06-.86-0.37-1.81.11-2.53a0.84,0.84,0,0,0-.64-0.8,0.66,0.66,0,0,1-.43-0.05,5.32,5.32,0,0,0,.83-1.32c-0.05-.27-0.3,0-0.44-0.11a1.31,1.31,0,0,1-.79.41c-0.58-.19-0.32-0.86-0.32-1.29,0-1.58-1.61-2.44-1.48-4a2.47,2.47,0,0,0-2.52-1c-0.93-.12-1.51,1.18-2.13.2a2.72,2.72,0,0,0-1-1.82c-1.27-.56-2.48,1.37-3.7.07a1.93,1.93,0,0,0-1.22-1c-1.14-.22-0.91,1.51-2,1.32a2.7,2.7,0,0,0-2.13.18,27.24,27.24,0,0,1-2.3,2.29,3.29,3.29,0,0,0-2.21,2.72c-0.31.54-1,.43-1.48,0.78a2,2,0,0,0-.68,0c-0.13.05,0,.23,0,0.34a1,1,0,0,1,.38.21c-0.35.66-.91,1.22-0.75,2a6.76,6.76,0,0,0-.71,3.24,4,4,0,0,1-1.09,0c-0.05,1.14,1.42,1.49,1.17,2.75a2.5,2.5,0,0,1-.92,1.2,3.28,3.28,0,0,1-.93,0c-0.43.68,0.5,1.36,0,2-0.58.06-1.23-.26-1.7,0.2-1.28,1.5.39,3.19,0.21,4.83a0.74,0.74,0,0,1-.82.28,3.91,3.91,0,0,0-.79-0.29,1,1,0,0,0,.44.93l0.73,0.25a0.77,0.77,0,0,1-1,.59c-1.24,0-.26-2.71-1.84-1.44-1,1.24.43,2.31,1,3.24-0.14.91,0.5,1.81-.22,2.52-0.87-.16-1.5-1.39-2.14-2.09-1.47-1.62-3.44-3.26-4.42-5.24-0.82-1.65-1.08-3.51-1.81-5.19-1.79-4.11-6.16-7.24-8.6-11,1.94,2.22,5.28-1.94,1.08-1.62-2-1.64-4.94-4.89-7.87-3.85-2,.7-2.76,2.95-4.63,3.8-1.17.54-2.11,2.21-3.2,3.08-1.25,1-2.61,1.85-3.79,2.93,2.65,1.82,7.47-2.32,9.87-3.11,1.64-.54,1.68-0.37,2.44,1.09,0.53,1,1,2,1.56,3.07,0.89,1.79,1.78,3.59,2.75,5.34,2.08,3.75,4.86,6.92,7.38,10.36,1.42,1.94,2.89,3.84,4.15,5.89,1,1.53,1.13,2.92,2,4.35,1.7,2.73,3.46,5.62,6.51,7a8.09,8.09,0,0,0,3.53,3c1.53,0.63,2.1,2,2.64,3.52a57.13,57.13,0,0,0,4.12,8.65c1.62,2.93,2.66,5.51,2.38,8.87-0.25,3.11-.58,6.57.49,9.57a6.13,6.13,0,0,0,.83,1.6c0.51,0.69.17,0.87,0.07,1.71a23.79,23.79,0,0,0,.06,3.91c0.12,3.4-1.84,6.19-3.16,9.26a90.76,90.76,0,0,0-3.54,9.6,75.72,75.72,0,0,0-2.55,11.69c-0.47,3.45-2.24,7-3.72,10.12a134.11,134.11,0,0,1-10.81,18.16c-3.93,5.78-8,11.52-11.32,17.65-0.17,1.87-1.1,3.45-1.67,5.2-0.42,1.27,0,2.91,0,4.27,0,2.15-.58,5.6,1.8,6.78-2.76,1.81-6,8.66-2.95,11.33,2.52,2.17,6.44-1.57,8-3.37s2.11-4.25,3.69-6,3.25-2.86,4.54-4.93a12.63,12.63,0,0,1,.2-2.67c0.27-1.2.1-2.25,0.61-3.39,1.21-2.69,2.52-5.34,3.87-8,2.8-5.43,6.2-10.8,8.38-16.52,2-5.37,5.14-9.86,7.91-14.83s5-10.53,7.74-15.65c2.58-4.8,4.76-10.2,8.66-14.12-0.09,9.91-2.57,19.61-2.71,29.53a37.71,37.71,0,0,1-1.81,7.34,43.69,43.69,0,0,0-1.15,6.66c-0.59,4.94-1,9.92-1.34,14.88-0.41,5.21-1.26,10.45-1.26,15.67,0.51,1.25.92,1.59,0.5,2.93a13.79,13.79,0,0,1-1,2.26,22.61,22.61,0,0,0-1.83,3.86c-0.45,1.48-1.11,4.66,1,5a11.45,11.45,0,0,0,4.4-.13c2.87-.67,5.33-2.75,4.92-5.93A10.36,10.36,0,0,1,282,355c0.12-1.22-.21-1.41,1.16-1.54a20.14,20.14,0,0,0,5.3-1.1c2-.75,1.6-8.45,1.7-10.5,0.4-8.24.16-16.5,0.26-24.75A94.17,94.17,0,0,1,293.88,293c1-3.7,2.65-7.19,3.82-10.85s2-7.36,2.94-11.08C302.36,264,303,257.25,298.07,251.35Zm-41.1-62c-0.27.19-.26-0.17-0.39-0.26A0.26,0.26,0,0,1,257,189.31Zm27.27,9.6a2.08,2.08,0,0,0,.19.2l-0.14.08a1.74,1.74,0,0,1-.09-0.19Zm-7-19.69a1.72,1.72,0,0,1,1.05.46C277.79,180.09,277.59,179.37,277.25,179.22Zm5.64,10.3a2.07,2.07,0,0,1,.79,1.59A2.62,2.62,0,0,1,283,193l-0.19-.25A3.76,3.76,0,0,0,282.89,189.52Zm-5.31-11.3a1.7,1.7,0,0,1,1.3,1c-0.78-.26-1.57-0.78-2.3-0.95A3.14,3.14,0,0,1,277.58,178.22ZM273,176.57a0.72,0.72,0,0,1,.8.63,3.06,3.06,0,0,1-1.58-.42A2.53,2.53,0,0,1,273,176.57Zm-2.45.55c-0.13.08-.2,0-0.3-0.08C270.36,177,270.52,177,270.55,177.12ZM269.11,176a1.36,1.36,0,0,1-.91,0C268.39,175.47,268.88,175.82,269.11,176Zm-2.79,1-0.11.16a0.75,0.75,0,0,1-.33.25l0,0a2.86,2.86,0,0,1-1.2-.09A1.72,1.72,0,0,1,266.32,177Zm-4.37,2.76,0,0.13c-0.08.58-.32,1.47-1.1,1.24A2.44,2.44,0,0,1,261.95,179.72Zm-4.37,7.3,0,0.43,0-.22Zm-4.05,9-0.06-.32c0.06-.55.51-1.25,1.18-0.86A3.78,3.78,0,0,0,253.53,196Zm-2.91,4.7a1,1,0,0,1,.33-0.74,2.26,2.26,0,0,0,1.22,1.73c-0.28.11-.18,0.51-0.51,0.55C251.3,201.76,250.6,201.48,250.61,200.72Z" transform="translate(16.23 -59.93)"/>
        </g>
        <g id="man17">
          <path d="M348.83,229.42c-1.92.42-4,0-5.92,0.13a5.7,5.7,0,0,0-2.29.49c0.13,1,1.13,1.27,2,1.32,2.23,0.15,4.83,0,6.9.86s4.19,2.31,6.56,2.69a24.88,24.88,0,0,1,3,.22c1.16,0.33,2.27.84,3.4,1.27a8.63,8.63,0,0,0,6.66.16c3.88-1.53,6-5.19,9.16-7.75,0.55,1.63,1.84,3,2.12,4.67a20.92,20.92,0,0,1,.23,5,35.57,35.57,0,0,1-2.49,9.92c-1.07,2.81-2.28,5.59-3.11,8.49-0.14.49-.93,3.18-0.69,3.52,0.92,1.3-1,2.82-.24,4.28a42.1,42.1,0,0,1-1.71,4.81,11.64,11.64,0,0,1-2.82,3.89c-1.57,3.59-3.05,7.21-4.38,10.89-2.69,7.43-4.12,15.19-6.66,22.66-1.17,3.44-2.5,6.81-3.88,10.17-0.71,1.74-1.39,3-1.25,4.91s0.55,3.81.86,5.78a102.67,102.67,0,0,1,.77,11c0.18,3.86,1,7.59,1.33,11.42,0.26,2.75-.59,5.61,1.1,8.09a4.73,4.73,0,0,0,2.73,2,7,7,0,0,0,2.16.19,26.36,26.36,0,0,1,.93,3.16c0.37,1.59.85,3.12,0.31,4.7a4.52,4.52,0,0,0,0,3.81,3.74,3.74,0,0,1,.59,1.55c0.1,1.16-.37.53-0.62,1.31s0.08,0.65-1,.85c-0.88.16-.58,1.49-0.75,2.25-0.76,3.43-8.1,12.39-2.67,14.57,3.77,1.52,14.28,1.57,13.88-4.59-0.12-1.74-.38-3.46-0.5-5.2a15.64,15.64,0,0,1,.74-4.93c0.49-2-.29-7-3.13-7.08,0-1.5-.59-2.54-0.78-4a18.94,18.94,0,0,1,.07-4.43c0.14-1.43.36-2.86,0.46-4.3a9,9,0,0,0,3.67-3.55c-0.3-3.78-.47-7.57-0.48-11.36,0-4.08.55-8-.56-12-0.9-3.22-2.58-6.82-.44-9.79s3.36-7.42,4.93-10.89a119.11,119.11,0,0,1,10.79-19.77q1.5-2.14,3.16-4.17c0.5-.07.61-0.64,1.1-0.73,0.7-.08,1.39,0,2.09,0,1.27-.05,1.06.43,1.5,1.57q0.49,1.25,1,2.51,1.11,3,2.06,6.06c2.25,7.28,2.93,15,5.5,22.18a107.08,107.08,0,0,1,3.5,10.58c1,3.9,1.5,7.93,2.68,11.78,1,3.3,2.44,6.46,3.66,9.69a20.28,20.28,0,0,1,1.22,4.92c0.21,1.64.17,3.94,1.82,4.66a5.74,5.74,0,0,0,2.21.44c0.19,0.73.42,1.45,0.67,2.16,0.51,1.42,1.12,2.79,1.68,4.19,0.78,2,3.27,8,1.34,9.77-2.45,2.23-2.8,5.59-2.09,8.74,0.8,3.47-.69,7.51-0.93,11.07-0.42,6.08,8.62,6.09,12.63,5.07a9.86,9.86,0,0,0,3.1-1.31c0.48-.32,1.28-2,1.62-2.08-0.16-3.28-1.41-6.17-2.82-9.08a33.28,33.28,0,0,1-1.66-3.84,7.2,7.2,0,0,1-.41-3.26,3.15,3.15,0,0,1-2.33-2.82c0-1.39,1.31-2.41,1.15-3.86s-1.59-2.49-2-3.9a22.48,22.48,0,0,1-.6-4.5c-0.08-1.64-.1-3.28-0.17-4.93,0-.79-0.09-1.59-0.17-2.38-0.12-1.22.9-1.44,1.92-1.94a13.6,13.6,0,0,0,4-2.37,7.45,7.45,0,0,0-.51-3.41c-0.38-1.55-.72-3.13-1.23-4.65a15.12,15.12,0,0,0-.85-2.09c-0.59-1.16-1.38-.9-1.63-2.17-1.45-7.3-4.17-14.24-6.29-21.36a45.36,45.36,0,0,1-2.09-10.86,89.11,89.11,0,0,0-1.38-12.17c-1.45-7.66-2-15.57-4.14-23.06a86.24,86.24,0,0,0-3.77-9.69,99.61,99.61,0,0,1-3.56-9.43c-2.13-6.84,1-14,3.75-20.22,2.56-5.77,2.11-13.87,8.59-17.2,3.24-1.67,7-2.07,10.1-3.88a104.78,104.78,0,0,1,9.76-4.94c3-1.34,6.3-1.55,9.32-3a89.16,89.16,0,0,0,8.23-4.66c1.64-1,3.28-2.07,4.92-3.12,1.32-.84,3.11-2.51,4.68-2.7s2.7,0.64,4.21.37c1-.17,3.39-1.68,3.94-0.95,1.25,1.66,5.25,1.58,6.26-.33a5.17,5.17,0,0,0,.54-4.19c-0.29-1.33-.78-2.81-2.29-3.11,1.07-2,4.66-2.23,5-4.77,0.24-1.89-2-.53-2.76.06a39.89,39.89,0,0,1-9,3.84c-1.95.65-3.54,1.55-5.56,2a6.24,6.24,0,0,0-2.5,1.42q-1.83.56-3.67,1.09c-2.47.72-4.94,1.41-7.42,2.1-4.38,1.22-9.63,2-13.38,4.6-2,1.38-3.36,3.28-5.6,4.15s-4.61,1.63-6.94,2.32l-2.68.8c-1.23-.1-2.44-0.38-3.68-0.49a15.19,15.19,0,0,0-5.75,1.2c-0.59.2-1.69,0.81-2-.1s-0.66-.62-1.5-0.86c-1.59-.46-2.75-1.53-4.51-1.34,0.29-.68.72-2.6,1.71-2.59,1.57,0,.86-2.9,2.79-2.94s2.62-1.47,3.72-2.85c0.9-1.13,2-3.36,3.29-4-0.26,2.39-2.07,3.83-3.06,5.88,2-1.26,2.95-3.81,4.11-5.77,0.63-1.07,1.9-2.06,2.13-3.21a32.57,32.57,0,0,0,.87-4.76c0.26-5.34-4-12.31-9.37-13.52-5-1.12-10.77,1.36-14,5.22a17.28,17.28,0,0,0-3.54,7.65c-0.36,1.52-.66,3.06-1.05,4.58s-1.5,2.29-2.28,3.56c0.24,0.55.71,2.82,1.71,2a5.14,5.14,0,0,0,1.6,2.5c1.1,1,1.42.85,0.41,2.23-1.35,1.86-2.28,4-4.39,5-1.64.78-4.78,1.15-5.71,2.79-0.42.72-2.38,0.37-3.13,0.42a6.68,6.68,0,0,0-3.91,1.12,19.76,19.76,0,0,0-3.88,4.36c-1.35,2.09-1.65,4.54-2.85,6.62a55.21,55.21,0,0,1-4.62,6.48c-0.73.92-1.46,1.83-2.16,2.77a2.73,2.73,0,0,0-3.06-.37c-0.27-2.83,2.29-3.83,3.9-5.62,0.43-.49,1.72-2.5.62-2.85-1.91-.61-3.21,1.16-4.38,2.28-2.54,2.42-6.44,4.48-9.18,1.13-1.94-2.37-2.9-6.39-6.26-7.2-1.39,3.31,4.7,5.93,3.79,9.07-3.89-.54-6.11-5.55-10.17-6-1.33,3.22,6.89,5.62,7.59,8.46-3.43-1.21-6.73-3-10.41-3.31-0.09,2.15,2.69,2.6,4.17,3.31C345,227.18,348.74,227.86,348.83,229.42Zm84.54,124c0.13,0.21.91,1.58,0.35,1.69A9.37,9.37,0,0,0,433.37,353.41Zm-0.14-.27h0Zm-2.57-8.57a4.64,4.64,0,0,1,1.23,3.67C431.22,347.43,430.19,345.71,430.66,344.57ZM410.57,261.4h0Zm-1-2.45c-0.18.41-.31-0.48,0,0h0Zm-35,4.29c0,0.74-.24-0.47,0,0h0Z" transform="translate(16.23 -59.93)"/>
        </g>
        <g id="man16">
          <path d="M6,227.16c0.31,1.14,1.81.64,2.48,0.19-0.49.8-2,.7-1.43,2.06,0.35,0.88,1,.31,1.68.63-0.39,1.21.88,1.8,1.85,1.27-0.82,2.71,5-.31,5.68-0.69,2.3-1.21,3.94-3.21,5.86-5,4.66-4.24,10.87-6.84,16.21-10.09a28.87,28.87,0,0,0,4.14-3,4.51,4.51,0,0,0,2.92-2.35c1.27-2.61,2-5.47,3.54-8,1-.25.86-2,1.81-2.07,0.69,1.54,1.28,3.12,1.84,4.71,1.11,3.12,2.44,5.92,1.53,9.27-0.34,1.26-1.25,2.66-.74,3.88,0.36,0.87-.67,3.1-0.85,4-0.57,2.93-.41,6.09-1.66,8.8-0.13,3.45-1,6.83-1.16,10.28-0.09,1.64.21,3.28,0.06,4.89-0.14,1.44-.62,3.16,0,4.51s2,1.83,1.88,3.23a20,20,0,0,0,.35,4.48c0.43,2.61,1.22,5.65-.13,8.14a37,37,0,0,0-7.08,6.71c-1,1.17-1.86,2.39-2.72,3.63-0.39,1.55-.88,3.07-1.42,4.58-1.18,3.33-2.21,6.63-3.22,10-0.71,2.4-1.15,5.94-3,7.79-1.76.51-2.28,0.75-3.19,2.48a12.92,12.92,0,0,0-1.51,3.63c-0.54,2.71-1.37,5.34-1.14,8.14s-1,5.34.13,8.23c0.88,2.34,2.71,3.28,5.06,3.73a24.22,24.22,0,0,0,9,0,14.16,14.16,0,0,0,.66-4.3c-0.05-1.33-.86-2.65-1.2-3.95a45.4,45.4,0,0,1-1.15-9.89c0-1.37-.82-1.22-0.34-2.78a21.78,21.78,0,0,1,1.26-3.85c2.7-5.23,5.77-10.52,10.54-14.14,2.62-2,2.5-6.84,5.27-8.58A24,24,0,0,0,64,272.56c3.89-4.92,3.71-12.73,3.93-18.73a48.71,48.71,0,0,0,4.82-2.32,1.59,1.59,0,0,0-.55-1,4.18,4.18,0,0,1,0-2.1c0.27-3.07,1.07-6.07,1.29-9.15a40.49,40.49,0,0,1,5.77,6.41,55.27,55.27,0,0,0,6.1,5.85c-0.32.42-1.37,0.58-.28,1.05,0.75,0.33,1.75,0,2.1.75a1.52,1.52,0,0,0,1.34,1.07c0.56,0,0-.46.31-0.65,2.18,1.89,4.42,3.7,6.66,5.52,1.12,0.91,2.23,1.82,3.34,2.75s0.14,1.29-.6,2.16c-2.52,3-4.84,6-3.89,10.2-0.37,1.13-.65,2.29-1,3.42-0.33.94-.64,2.51-1.7,2.19a7.33,7.33,0,0,0-5.76.91,13.56,13.56,0,0,1-2.11,1.72c-1,.52-1.65.63-2.3,1.64-1,1.61.42,4.06,1.32,5.49A18.67,18.67,0,0,0,87,294.16c1.63,1.31,2,4,3.18,5.71s3.3,2.64,5.09,3.63a27.92,27.92,0,0,0,5.41,2.35c2.34,0.7,4.89,1.32,7.14.11s1.61-4.15-.07-5.41c-3.33-2.51-8.41-6.45-7.62-11.22-0.7-.15-0.17.72-0.44,0.76a10,10,0,0,0-.74-2.59c-0.79-1.29-.47-1.66.33-2.94a30.19,30.19,0,0,1,4.45-5.23,43.88,43.88,0,0,0,4.63-5.06c0.65-2,2.12-3.58,3.53-5.14a15.73,15.73,0,0,0,1.89-2.44c0.6-1,0-2.38,0-3.52-0.15-2.3-1.88-4.93-2.71-7.13-0.91-2.43-1.77-4.88-2.73-7.29-0.47-1.18-1-2.34-1.52-3.49-0.32-.67-0.66-1.33-1-2a2.78,2.78,0,0,0,.6-0.9c0.39-1-1.57-3.28-2.09-4.22-0.77-1.39-1.57-2.76-2.41-4.1a57.86,57.86,0,0,0-5.54-7.47,20.5,20.5,0,0,1-7.18-13.18,42.47,42.47,0,0,1-.57-5.23,20,20,0,0,0-.26-5c-0.87-3.18-1.6-6.4-2.32-9.62A62.05,62.05,0,0,1,84.48,175c0.23-2.66.72-5.84,2.87-7.61a24,24,0,0,1,7.4-4,7.33,7.33,0,0,0,2.67-1.09c0.47-.42,1-0.83,1.44-1.24a29.52,29.52,0,0,1,3.09-2.27,20.6,20.6,0,0,1,3.57-1.8c1.35-.52,3-0.58,4.14-1.48,5.19-4.23,9.65-9.24,14.46-13.87,2-2,5.53-4.52,8.41-4.27,3.19,0.29,4.7-1.46,7.39-2.71,0,1.57.87,1.08,1.64,0.22a10.09,10.09,0,0,0,1.31-2.64c0.77-1.58-1.08-2-1-3.63,1-.08.76-0.64,1.51,0.22a6.73,6.73,0,0,0,1,1,15.14,15.14,0,0,1,1.52,1.64,1.91,1.91,0,0,0,1.78.69c1-.29-0.19-1.53-0.55-2-0.57-.76-3.35-3.11-2.58-3.78,1.05-.92,2.5-2.45,1.21-3.81a15.44,15.44,0,0,1-4.57,3.78c-1,.45-2,0.21-3,0.36a7.59,7.59,0,0,0-2.75,1.56c-4,2.64-8.06,5.16-12.17,7.6q-3.29,2-6.61,3.85c-1.7,1-3.64,1.47-5.39,2.33-3.13,1.54-5.94,3.57-9,5.32-2,1.16-5.24,5.19-7.92,3.25-1.05.28-2.26-.05-3.18,0.4a11.27,11.27,0,0,1-2.17.79,33.85,33.85,0,0,1-5.14.81,57.78,57.78,0,0,0-5.92.76,10.15,10.15,0,0,0-4.32,2.32c-2.23,1.72-6.32,5.17-8.92,2.47,0.48-.6,1.2-1,1.69-1.61a4.85,4.85,0,0,0,.73-2.94,24.71,24.71,0,0,1,.18-3.62c0.19-1.12.57-2.4,0.07-3.49,1.24,0.22,1-1,1.6-1.63a3.4,3.4,0,0,0-1.35-1.4,2,2,0,0,1-1-1.64c-1-3.28-2-5.15-4.73-7.23-4.39-1.49-10.1-.36-12.68,3.87a9.58,9.58,0,0,0-1,6.83c0.15,0.78.42,1,0,1.66a2.56,2.56,0,0,0-.37,1.46,8.27,8.27,0,0,0,.76,3.13c1.3,1.26,2,1.47,2.15,3.41a42.27,42.27,0,0,1,.11,4.24,25.32,25.32,0,0,0-.08,3.52,2.53,2.53,0,0,0-2.11,2c-0.49,1.55-.2,2.56-1.55,3.6-1,.79-2,1.58-3,2.43a19.56,19.56,0,0,0-4.82,6c-2.77,5.66.6,12.49-1,18.58-0.23.88-.15,1.73-0.39,2.62,0,0.45.49,0.5,0.44,1a7.79,7.79,0,0,0-.52,4c0.19,1.31-2.07,2.31-3.15,3a13.57,13.57,0,0,0-3.31,3.1c-4,4.71-8.59,9.06-14.21,11.81-2.76-.49-6-0.29-8.32,1.43a1.51,1.51,0,0,0-.86,1.53c-0.05.67,0.36,1.45-.31,1.76C6.93,225.78,6,226.08,6,227.16Zm62.1-81.38h0Zm0-.86h0ZM67.24,146h0Zm73-15.79a1,1,0,0,1,0,1.29C139.91,131.2,140.37,130.73,140.21,130.22Zm-1.82,1.21h0ZM99.89,291.07a7.58,7.58,0,0,1,.46,2.25A2.69,2.69,0,0,1,99.89,291.07Zm-0.43.11c0.12-.43.13,0.42,0,0h0Zm-0.22-.75c0.12-.43.13,0.42,0,0h0ZM10.66,229.16h0Zm-0.49-5.27h0Z" transform="translate(16.23 -59.93)"/>
        </g>
        <g id="man15">
          <path d="M688.07,102.5c-0.22-.94-1.3-0.88-1.87-1.46-1.72-.39-0.44-1.79-0.79-2.85-1.89-1.92-4.1.66-6.19,1-1.4-4.18.58-9.1-1.55-13h-1.57a2.22,2.22,0,0,0-1,1.63c-0.07,4.48.15,9.64-.25,14.13,1.1,3.91,2.11,7.74.9,11.75a67.66,67.66,0,0,1-11,17.45c-3.45,3.26-4.33,7.41-6.8,11a66.37,66.37,0,0,0-9.75,9.51,2.2,2.2,0,0,0-.37.06c0.18-.53.35-1.06,0.48-1.59a2.88,2.88,0,0,1-1.54-.9,3.57,3.57,0,0,1-.88-3.09c0.56-1.69,0-3.76.59-5.42l0.09,0.08c0.12-.09.41-0.06,0.4-0.31-0.83-.69-0.34-2.29-0.69-3.31l0.47-.44c-1.11-.56-1.07-2-1.86-2.87-0.35-1.68-.09-3.64-1-5-1.08-2.13-3.26-4.16-5.78-4a10.1,10.1,0,0,0-10.66-.45c-0.87-.12-1.43-1.12-2.27-1.36-1.27-.46-2.47.18-3.52,0.7-2.75,2.52-6.67,4.73-7.36,8.67-2.29.55-3.41,3.22-3.87,5.28,0.77,3.31,0,6.41,1,9.38,0,0,0,0,0,.07a4.14,4.14,0,0,1-2.1-1.9c-5.79-4.13-11.12-9-13.79-15.09-3.56-9.93-9.34-18.82-12.61-28.9-0.67-3.69,2.28-6.38,3.08-9.7,0.77-1.7-.48-3.2-0.66-4.85,0.38-3.5-1.76-6.06-2-9.41-0.23-.49-0.33-1.43-1.07-1.3-3,2.78.39,6.72-1.49,9.9l-2.52-.56c-1.61-.53-2.08,1.24-3.39,1.48-0.83,1.33-.14,3.32-0.21,4.82a5.78,5.78,0,0,0-.79,3.4c1.14,1.05.13,3,.83,4.34,2.61,7.84,3.87,15.92,6.28,23.85,1.81,5.53,2,11.85,7.45,15.58l3.45,6c1.06,2.55,4,4.28,4.06,7.21,2.8,4,6.13,7.8,7.8,12.34,2.49,5.86-2,10.71-2.65,16.17-1.32,6.49,3.64,10.71,6.21,15.7a103,103,0,0,1,2.5,12.4c1.43,3.93,3.22,7.72,4.65,11.65,1.31,0.42.81,1.9,1.17,2.91-0.44,3.83-.08,8-2.12,11.26-1,4.65-3.09,8.87-3.8,13.63-1.58,11.89-6.62,22.61-10.83,33.58-1.05,3.91,1.4,6.91,1.69,10.54,0.35,5.93,1.05,10.94,1.4,16.88a44.65,44.65,0,0,0,4.53,15.26,4.59,4.59,0,0,1-1.44,3.64c-1.29,1.94-.6,4.55-2,6.37-3.25,1.1-7.4.81-9.42,3.86a4.86,4.86,0,0,0,.9,3.43c1.63,1.72,4.27,1.49,6.49,2,3.65,0.78,7-1.23,10.39-2.1,1.95-1.35,3.75.4,5.69,0.37,3.76-.17,8.41.17,11.58-2.37,1.16-.73.36-2.3,0.21-3.49,0.5-.61.08-1.53,0.16-2.29-1.79-4.49-2.38-9.55-4.78-13.71-2.13-4.59-1.08-10.7-2.89-15.44a106.27,106.27,0,0,1-4.86-15.24c-0.37-1.39-1-2.88-.17-4.25,2.16-1.33,2.8-3.85,3.24-6.15-0.09-1.57,1.8-1.1,2.36-2.12,3.07-6.31,5.29-13,9.2-19,1-1.71,1.18-4,2.46-5.31a19,19,0,0,1,1,5c0.48,6.05,1.24,12,1.83,17.94,0.58,2.08,1.35,4.6.1,6.57-1.16,7.06,1.79,12.94,3.13,19.56,1.25,5.14-.09,9.9-0.83,15-3,5.88-3.95,12.48-3.41,19.57a20.1,20.1,0,0,0-.81,4.52c-2,3.56-8.58,5.51-6.85,10.33a5.82,5.82,0,0,0,4.63,2.71c5.72,0.12,12.19-.42,15.87-5.4,1.39-1,3.21-.39,4.69-1.26a4.35,4.35,0,0,0,2.31-2.91c0.63-1.24-.84-3.1.56-3.8-0.79-2.19.08-4.22,0.34-6.27,0.75-2.82-1-4.91-1.35-7.49,0.5-6.32.27-13.18,1.05-19.52-0.51-9.49-.36-19.72-2.87-28.55-1.48-7.65,1.14-14.64,1.91-21.84,0.16-7.87,4-14.47,2.77-22.8-0.55-9.45-7.18-15.93-10.18-24.16-1.94-3.37-5-6.17-5.36-10.33-0.4-13.18.36-26.47,11.78-35,3-5,7-8.28,10.54-13,3.06-3.62,4.16-8.07,7.49-11.37,4.4-5.43,4.79-12.24,9.32-17.64,0.61-5.21,6.52-8.82,5.28-14.42l0.5,0C688.14,106.43,688.19,104.44,688.07,102.5Zm-43,34.79c0.66,0,.46.76,0.69,1.16l-0.08.79-0.5,0C644.9,138.63,645.3,137.66,645.11,137.29Zm-0.32,9.46h0.08l0,0.58h-0.08Zm-2.5-18.81a5.65,5.65,0,0,1,.65,2.61c-0.24-2-2.66-2.37-3.15-4.29A3.92,3.92,0,0,1,642.29,127.94Zm-1.39,1.65,0.18-.42a1.73,1.73,0,0,1,.64,1.08A0.64,0.64,0,0,1,640.9,129.59Zm-16-5.93a0.19,0.19,0,0,0,.09.2l-2.34.34A2.41,2.41,0,0,1,624.86,123.66Zm-2.19,1.54,0.5,0a2.68,2.68,0,0,0-.81,1.74,4.08,4.08,0,0,1-2.22-.36A15.23,15.23,0,0,1,622.68,125.2Z" transform="translate(16.23 -59.93)"/>
        </g>
        <path id="man14" d="M512.37,161.87c-1.69-.35-2.78,1.49-3.77,2.56l-0.17-.15c0.43-2.24,1.35-4.31,1.51-6.64a1,1,0,0,0-1.19-.66c-0.8.9-.68,2.32-1.36,3.24a0.85,0.85,0,0,0-1.08-.57,3.26,3.26,0,0,0-.86,1.87c-0.42.76-.56,2.18-1.79,2.1-2.45,4-4.88,8-6.94,12.17a2.71,2.71,0,0,0-.38.73,1.83,1.83,0,0,0-1.29-.53c-0.79-1.08-2.15-1.1-3.32-1.36a0.72,0.72,0,0,0-.73-0.85c-1.35.44-1.74-1.68-3-1.22v0.36a1.45,1.45,0,0,1,.28.61c-0.63.31-1.2-.42-1.87-0.49-1.23,0-2.8,0-3.48,1.19l0.15,0.48a7.91,7.91,0,0,0-2.73,1.36c0.94-3.36,2.17-6.61,3.34-9.88A111.74,111.74,0,0,1,487,146.1c0.26-4,4.32-5.65,6.94-7.94,1.1-.78,2.39.1,3.46-0.68a2.31,2.31,0,0,0-.67-1.52,3.66,3.66,0,0,0-4-.07c-0.22.07-.56,0.34-0.77,0-1.12-3,2.57-5.13,1.23-8.11-1.88-.25-1.69,2.13-2.82,3a15.75,15.75,0,0,0,.22-4.16c-0.17-.38-0.46-1-1-0.9-1.32.76-.18,3-1.57,3.61a8.76,8.76,0,0,0,0-3.16,0.92,0.92,0,0,0-1.54.06c-0.42,1.63-.74,3.38-1.29,4.92-0.7-1.42-.71-3.16-1.4-4.59a1.16,1.16,0,0,0-1.09.27c-0.46,1.37.08,2.87,0.26,4.24,2,9.43-3.05,16.63-4.6,24.94-2.2,6.47-2.53,13.64-5.87,19.67-1.1.85-1.08,2.24-1.51,3.38-1.88,3-1.93,6.71-4.17,9.61-0.72,1.26-.37,2.88-0.71,4.28,0.31,1.25-.92,1.94-0.87,3.13-1.83,7.68.79,15.25,2.21,22.74,0.85,4.57,3.43,8.66,3.77,13.23-0.12.26-.13,0.84,0.33,0.83l0.19,5c0.86,1.35.33,3.37-.2,4.81-0.22,2.62-1.06,4.94-.7,7.61-1.37,1.31.68,3.29-.92,4.51a1.74,1.74,0,0,0,.45,1.69c-0.19,3.33.34,6.92-.21,10.13,0,2.61.93,4.77,1.06,7.31,1.6,4.77.75,9.22,0.26,14.08-0.56,1.38-2.17,1.5-2.85,2.88-0.94,2.29-2.54,4.32-2.27,7.05-0.69,5.35-3.71,9.85-4.6,15.1-0.37,3.66-2.28,6.76-2.92,10.33,0.11,3.61-1,6.77-2.16,9.92-0.56,1.25,1.22,3.21-1,3.36a13.71,13.71,0,0,0,.94,4.38c0.05,2.09,2.51,3,2.08,5.33a8.19,8.19,0,0,0,2.14,1.92c1.72,1,3.29,2.61,5.29,2.5,0.94-.62,2.65-0.68,2.72-2.17-2.16-2.56,1.61-4.22,1.19-6.78-0.67-2.29-1.45-4.78-.28-7l7.06-19.68,1.55-5.64c0.59-4.7,2.72-8.84,3.17-13.57,1.78-4.07,1.75-8.77,3.53-12.84a15.82,15.82,0,0,1,.7-3.44l0.2,0.86c-0.2,4.07-1.18,7.85-1.08,12-1.12,6.75.32,13.88-2,20.19-0.25,2.62.39,5,.81,7.48,0.69,3.52-.48,6.75-0.66,10.14,0.2,1.74-.61,4.18,1,5.31,0.39,0.24,1,0,1.33.4a3.64,3.64,0,0,0,2.26,2.62c1.28-.18,2.23,1,3.5.41,2.1,1.69,4.78,1.84,7.49,1.86,2.21-.31,5.1,0,7.15-1a1.91,1.91,0,0,0-.35-1.6c-0.9-1.67-3.05-1.36-4.36-2.6-1.39-1.75-1.48-4.1-1.73-6.38l-2.87-16.43c-0.18-2.09-1.6-3.84-1.17-6,0.25-5.23,2.06-9.94,1.89-15.26-0.54-4.84.95-9.51,1.6-14.21,2.91-10.5,3.6-23.22.59-34.23a44.67,44.67,0,0,1-2.77-7.3c-2.76-3.89-2.66-9.57-3-14.36-0.74-2.42,1.79-3.84,2.32-5.89s0.43-4.59-1-6.21c-0.89-1.38-2.36-2.52-2.71-4.15,0-2-.41-4-0.08-6.12l0.59-.57A14.28,14.28,0,0,1,494.5,195a7.49,7.49,0,0,0,1.74-2,10.76,10.76,0,0,0,1.41-1.49,1.22,1.22,0,0,0,1,.59c-0.09.29-.1,0.8,0.29,0.86a1,1,0,0,0,.65-0.46c-0.14-.35-0.43-0.52-0.17-0.92-0.25-.48-0.87-1.12-0.5-1.71l-0.09-.12q0.23-.41.43-0.83c0.35,0.31.68,0.76,1.08,0.33a1.28,1.28,0,0,1-.43-1.27c0.49-.56.26-1.17,0.55-1.82l-0.1,0,0-.12c0.22-.82-0.21-1.93.45-2.5,0.38-2.5.94-4.94,1.55-7.35a7.35,7.35,0,0,1,2.44-5.19c3.51-.2,3.93-4.31,6.41-6C512,164.11,512.93,163.1,512.37,161.87Z" transform="translate(16.23 -59.93)"/>
        <path id="man13" d="M216.51,185.55c-1.69-.35-2.78,1.49-3.77,2.56l-0.17-.15c0.43-2.24,1.35-4.31,1.51-6.64a1,1,0,0,0-1.19-.66c-0.8.9-.68,2.32-1.36,3.24a0.85,0.85,0,0,0-1.08-.57,3.26,3.26,0,0,0-.86,1.87c-0.42.76-.56,2.18-1.79,2.1-2.45,4-4.88,8-6.94,12.17a2.71,2.71,0,0,0-.38.73,1.83,1.83,0,0,0-1.29-.53c-0.79-1.08-2.15-1.1-3.32-1.36a0.72,0.72,0,0,0-.73-0.85c-1.35.44-1.74-1.68-3-1.22v0.36a1.45,1.45,0,0,1,.28.61c-0.63.31-1.2-.42-1.87-0.49-1.23,0-2.8,0-3.48,1.19l0.15,0.48a7.91,7.91,0,0,0-2.73,1.36c0.94-3.36,2.17-6.61,3.34-9.88a111.76,111.76,0,0,1,3.24-20.08c0.26-4,4.32-5.65,6.94-7.94,1.1-.78,2.39.1,3.45-0.68a2.3,2.3,0,0,0-.67-1.52,3.66,3.66,0,0,0-4-.07c-0.22.07-.56,0.34-0.77,0-1.12-3,2.57-5.13,1.23-8.11-1.88-.25-1.69,2.13-2.82,3a15.75,15.75,0,0,0,.22-4.17c-0.17-.38-0.46-1-1-0.9-1.32.76-.18,3-1.57,3.61a8.76,8.76,0,0,0,0-3.16,0.92,0.92,0,0,0-1.54.06c-0.42,1.63-.74,3.38-1.29,4.92-0.7-1.42-.71-3.16-1.4-4.59a1.16,1.16,0,0,0-1.09.27c-0.46,1.37.08,2.87,0.26,4.24,2,9.43-3.05,16.63-4.6,24.94-2.2,6.47-2.53,13.64-5.87,19.67-1.1.85-1.08,2.24-1.51,3.38-1.88,3-1.93,6.71-4.17,9.61-0.72,1.26-.37,2.88-0.71,4.28,0.31,1.25-.92,1.94-0.87,3.13-1.83,7.68.79,15.25,2.21,22.74,0.85,4.57,3.43,8.67,3.77,13.23-0.12.26-.13,0.84,0.33,0.83l0.19,5c0.86,1.35.33,3.37-.2,4.81-0.22,2.62-1.06,4.94-.7,7.61-1.37,1.31.68,3.29-.92,4.51a1.74,1.74,0,0,0,.46,1.69c-0.19,3.33.33,6.92-.21,10.13,0,2.61.93,4.77,1.06,7.31,1.6,4.77.75,9.22,0.26,14.08-0.56,1.38-2.17,1.5-2.85,2.88-0.94,2.29-2.54,4.32-2.27,7.05-0.69,5.35-3.71,9.85-4.6,15.1-0.37,3.66-2.28,6.76-2.92,10.33,0.11,3.61-1,6.77-2.16,9.92-0.56,1.25,1.22,3.21-1,3.36a13.71,13.71,0,0,0,.94,4.38c0.05,2.09,2.51,3,2.08,5.33a8.19,8.19,0,0,0,2.14,1.92c1.72,1,3.29,2.61,5.29,2.5,0.94-.62,2.65-0.68,2.72-2.17-2.16-2.56,1.61-4.22,1.19-6.78-0.67-2.29-1.45-4.78-.28-7l7.06-19.68,1.55-5.64c0.59-4.7,2.72-8.84,3.17-13.57,1.78-4.07,1.75-8.77,3.53-12.84a15.82,15.82,0,0,1,.7-3.44l0.2,0.86c-0.2,4.07-1.18,7.85-1.08,12-1.12,6.75.32,13.88-2,20.19-0.25,2.62.39,5,.81,7.48,0.69,3.52-.48,6.75-0.66,10.14,0.2,1.74-.61,4.18,1,5.31,0.39,0.24,1,0,1.33.4a3.64,3.64,0,0,0,2.26,2.62c1.28-.18,2.23,1,3.5.41,2.1,1.69,4.78,1.84,7.49,1.86,2.21-.31,5.1,0,7.15-1a1.91,1.91,0,0,0-.35-1.6c-0.9-1.67-3.05-1.36-4.36-2.6-1.39-1.75-1.48-4.1-1.73-6.38l-2.87-16.43c-0.18-2.09-1.6-3.84-1.17-6,0.25-5.23,2.06-9.94,1.89-15.26-0.54-4.84.95-9.51,1.6-14.21,2.91-10.5,3.6-23.22.59-34.23a44.68,44.68,0,0,1-2.77-7.3c-2.76-3.89-2.66-9.57-3-14.36-0.74-2.42,1.79-3.84,2.32-5.89s0.43-4.59-1-6.21c-0.89-1.38-2.36-2.52-2.71-4.15,0-2-.41-4-0.08-6.12l0.59-.57a14.27,14.27,0,0,1,1.91-3.59,7.49,7.49,0,0,0,1.74-2,10.75,10.75,0,0,0,1.41-1.49,1.22,1.22,0,0,0,1,.59c-0.09.29-.1,0.8,0.29,0.86a1,1,0,0,0,.65-0.46c-0.14-.35-0.43-0.52-0.17-0.92-0.25-.48-0.87-1.12-0.5-1.71l-0.09-.12q0.23-.41.43-0.83c0.35,0.31.68,0.76,1.08,0.33a1.28,1.28,0,0,1-.43-1.27c0.49-.56.26-1.17,0.55-1.82l-0.1,0,0-.12c0.22-.82-0.21-1.93.45-2.5,0.38-2.5.94-4.94,1.55-7.35a7.35,7.35,0,0,1,2.44-5.19c3.51-.2,3.93-4.31,6.41-6C216.12,187.79,217.08,186.78,216.51,185.55Z" transform="translate(16.23 -59.93)"/>
        <g id="man12">
          <path d="M371.21,248.82l-0.15.07h0Z" transform="translate(16.23 -59.93)"/>
          <path d="M393.09,208.69l-0.72-1c-1.88-5.75-4.38-11.25-6.74-16.83-1.06-1.4-1.77-3-2.7-4.41,1.13-.55,3.35-0.1,3.19-2-0.82-1.5-2.95-.82-4.25-1.23-1.57-.89-0.48-2.91-1.74-3.87-0.48-2.67,1.2-5.57-1-7.46a1.47,1.47,0,0,1-1-1.4,2.81,2.81,0,0,0-3.15-1.47c-0.71-.92-0.37-2.87-1.88-3.11-1.09,1-1-1.3-2.19-.82a1.24,1.24,0,0,0-.82.82,19.7,19.7,0,0,0,.55,5.17,6.13,6.13,0,0,1-.07,2.63l-0.58-.51a2.4,2.4,0,0,0-1.95-.07c0.1,0.82.58,1.51,0.65,2.39a22.9,22.9,0,0,1,.82,2.77,35.72,35.72,0,0,1-4.75,2.56,112.3,112.3,0,0,0-21.51,5.58c-1.5.55-2.87,1.54-4.51,1.71a10,10,0,0,0-4.45,3c-2.36,1.13-2.5,3.63-3,5.75-1.09,1.4-.2,3.42-1.06,4.82-0.55,4-1.61,8.07-1.3,12.24-1.13,1.16-.24,2.84-0.75,4.27-0.51,4.58.92,8.17,1,12.72,0,2.84.85,5.4,0.89,8.28a117.72,117.72,0,0,0,.27,17.4c0.17,3.39-1.43,6.05-2.33,9-2,3.93-.92,8.82-3.83,12.38,2,2.05,4.89,2.26,7.11,3.93,0.58,1.85.24,3.63,0.41,5.61l-0.31.31c-0.13,3.59.27,6.91-.34,10.5a87.68,87.68,0,0,0,1.47,22.75c0.41,3.73,1.91,7.28,1.57,11.32s2.36,7.08,2.53,11c-0.34,1.37.62,2.5,0.75,3.69-0.79,1.68.27,3.21,1,4.58-0.17,1.78,0,3.32-.17,5.17-0.37,4.1,2.12,7.25,2.63,11.08-0.13,1.44.79,3.46-.82,4.38a0.89,0.89,0,0,0,.41,1.13c1.91,0.44.31,2.29,1.4,3.38a8.05,8.05,0,0,1-1.75,2.19c-1,2.9-4,4.92-6.39,6.91a4.84,4.84,0,0,0-.89,5c2.87,3.83,7.73,1.17,11.39.41,1.78-1.23,3.59-2.63,5.26-4,3.15-.58,7-0.75,8.52-4.11,0.61-1.85-.38-3.38-0.41-5.16,0.17-1.47-1.37-2.7-.24-4,2.43-3.8-.34-7.9-0.17-12a69.59,69.59,0,0,1-2.05-13.82c-0.24-2.26-1.61-4.37-.41-6.63-0.14-1.4-.82-2.8-0.31-4.27,1.47-4.51.58-8.07,1.06-12.79,0.24-1.44-.85-2.84,0-4,0.41,3.55,2.12,6.53,2.39,10.12,3.11,3.35,2.67,8.17,3.83,12.38,2.43,3.42,1.78,8.14,2.46,12.32,0.44,2.49,1.61,4.68,1.74,7.28,1.57,3.22,1.16,7.66,5.09,9.44,0.07,2.26-.75,4.45-0.92,6.57,0.17,1.26.1,2.91,1.64,3.28l-0.17,1.33c-0.17,2.33,2,3.93,3.7,5.1,2.19,2.12,1.88,5.4,4.69,7.11,2.6,1.54,6.7,1.78,9.27.11,1.09-1.71.72-3.83,0.34-5.75a9.75,9.75,0,0,1-2.56-4.85,27.37,27.37,0,0,1-1.3-6.33c-2-1.78.28-5.47-2.53-6.87-1.81-6.7-.79-14.36-2.46-21a8.68,8.68,0,0,0-1.81-7.28,33.07,33.07,0,0,1,.58-11l-1-5.81c-0.52-9.71-1.33-19.77-3.46-28.39-1.37-3.18-1.74-6.7-3.28-9.78,0.14-1.3-1.44-3.11.41-3.93,0.13-1.3-1-2.26-1.41-3.45L370,272.64c0.21-5.85-.51-11.18.82-16.66l0.2-.1a0.19,0.19,0,0,1-.2-0.07,7.42,7.42,0,0,0,.24-2.29c-0.65-2.5.65-5.2,1.47-7.56,0.55-1.88.21-4.14,1.57-5.67,4.41-4,6.12-9.07,10.26-13.14,0.85-2.22,3.39-3.86,3.69-6.39,0.55-.92,1.71-0.75,2.46-1.4l2.12-4.82A22.41,22.41,0,0,1,393.09,208.69Zm-12.21.24a1.66,1.66,0,0,0-1,1c0.79,1.78-1.41,1.71-2.05,2.46-0.41,1.37-2.09,1.74-2.22,3.21-0.89.68-2.39,1.3-2.46,2.63-1.54.72-1,2.5-2.47,3.28-0.61.89-2.15,0.79-2.59,1.95-1.88-.24-2.36,2.39-4.28,2.22-0.62,1.78-2.49,1.16-3.69,1.88a2,2,0,0,1-.1-1.4,14.25,14.25,0,0,0,3-4.51c2.43,0.1,3-2.8,3.93-4.41,0.69-1.54-.38-2.84.58-4.28,1.16-4.62-1.37-8.65-4.92-11.56-2.7-2.39-7-2.43-10.26-1.23s-5.33,4.41-6,7.46c0,1.85-.1,3.86-1.23,5.33,0.07,2.29-.14,5-0.17,7a4.3,4.3,0,0,0-1.47-1.88c-0.21-1.61.58-3,.89-4.52l-0.75-3a12.37,12.37,0,0,0-.07-5.81,3,3,0,0,0,.82-2.39c-0.89-.89-0.37-2.05-0.17-3.11a0.92,0.92,0,0,0,.65-0.24c0.41-1.16,1.64-1.64,2.57-2.22,6.05-2.5,11.7-6.05,18-8,2.19-.13,3.73,1.16,5.68,1.57,2.22,0.27,4.58.44,6,2.53h0.24c1,3.69,2.33,7.29,2.7,11.25A15.35,15.35,0,0,1,380.88,208.93Z" transform="translate(16.23 -59.93)"/>
        </g>
        <g id="man11">
          <path d="M47.62,304.45C51.7,298,56.47,292,59.83,285.11A86.53,86.53,0,0,0,66.42,264a100.76,100.76,0,0,1,7.17-23c1.48-3.21,3.11-6.34,4.82-9.43,0.67-1.21,3-5.47,2-6.47s4.31-7.81,5.16-8.77c2.32-2.64,4.25-4.93,5.2-8.36,0.55-2,1.06-4,1.5-6a0.57,0.57,0,0,0-.3.14c-0.56.8-1.32,1.7-2.43,1.43a3.11,3.11,0,0,1-1.15-1.65c0.17-1-1.29-1.75-.87-2.69l0.13,0a2.71,2.71,0,0,0,.16.44,0.58,0.58,0,0,0,.94.4,4.2,4.2,0,0,0,.45.81c0.23,0.43.75,0.21,1-.07a9.62,9.62,0,0,0-1-3.39c-0.74-1.66,1.47-.92,1.91-2,0-.61-0.57-0.41-0.93-0.46a1.34,1.34,0,0,1-1-1c0.06,0,.11,0,0.18,0l0.12,0.2a1,1,0,0,0,1.23.2,8.21,8.21,0,0,1,.34-2.41,3.49,3.49,0,0,1-.41-1.55A106.38,106.38,0,0,1,78,194.7c-5.16-.61-8.7-3.13-12.14-7-1.62-1.85-3.13-3.79-4.81-5.58a28.42,28.42,0,0,0-2.69-2.53c-1.37-1.11-1.8-.75-3.39-1.06s-3.69-3.37-4.65-2.45c-0.43.42-2.66,1.29-2.32-.12,0.11-.49,1.31-1.41.81-1.93-1,.41-2.85,1.8-3.88.74s0.58-1.47.42-1.62c-0.59.48-2.08,0.83-2.62,0.09-0.71-1,1.07-1.42,1.6-1.74,1.15-.71-2.87-3.61-1.21-5.62,1.19,0.72,1.56,2.38,2.52,3.34,1.26,1.25,2.53.13,4.07,0a6.53,6.53,0,0,0,2.72-.69,5.52,5.52,0,0,0,2.36.79c1.87,0.09,2.51,1,3.8,2.31,3.28,3.31,4.8-2,8.18.06,2.18,1.35-3,3.06-3.27,3.91,3.62,2.71,7.77,4.33,11.13,7.44,0.87,0.81,1.71,1.65,2.54,2.49l3.65-1.56c2.06-.86,4.14-1.68,6.25-2.42,3.19-1.12,5.43-4.26,8.72-5.54l0.33-.12a2.47,2.47,0,0,1,0-1.69c0-.61,1.16-1.33,0-1.62a1.29,1.29,0,0,1-.14-1.08c0.38-.18.46,0.18,0.56,0.44a0.76,0.76,0,0,0,1.14-.13c0.9-1.06-.14-2.22-0.24-3.35-0.29-.34-1.16-0.34-0.9-1,0.33,0.15.66,0.59,1.06,0.32a3.75,3.75,0,0,1,1.72-1.84,3.34,3.34,0,0,0-.69-2.42c-0.18-.24-0.52-0.49-0.72-0.1-0.7.54-1.32-.25-1.89-0.52,0.48-.76,1.13.61,1.79,0-0.14-1.08-1.34-1.83-1.14-3-0.14-.67.5-1,0.23-1.63a3.26,3.26,0,0,1-1.37-1.71,1.81,1.81,0,0,1,.82-1.32c1.49,0.22,1.4-1.51,1.94-2.36-0.33-.28-1.39-0.2-0.93-0.89,0.56,0.64.69-.34,1.15-0.43,1.25,0.54,1.12-1,2.09-1.28,0.23-.25.44-0.7,0.81-0.28a1.65,1.65,0,0,0,.79-1.36c-0.32,0-.58.06-0.88,0-0.34-.39.23-0.55,0.33-0.8,0.51-.58,1.69.07,1.88-0.69a11.68,11.68,0,0,1,3.22-2.05c0-.1-0.11-0.09-0.21-0.12,0.61-1.87,1.51,1,2.52-.44,1.87-.22,3.36-1.54,5.37-0.83l1.16,0.51c2.59,0,5.89.4,7.63,2.5,0.5,1.84,2.68,1.58,3.2,3.49,1.19,2.61,2.41,6.06,5.78,6.16-0.55.47-1.38,0.14-2.07,0.21-0.06.52,0.59,0.74,0.88,1.12a0.81,0.81,0,0,1-.4.54c0.27,1.24,1.36,1.61,1.93,2.72,0.56,0.64,1.61.45,2.27,0.65-0.33.26,0.09,0.63-.06,0.93s-0.58.63-.87,0.29l0.32-.33a2.77,2.77,0,0,0-1.39-.5c-0.31-.14-0.58-0.68-1-0.4a2.65,2.65,0,0,1-.43,2.48c0.41,1.78,2.58,1.56,3.66,2.56a2.25,2.25,0,0,0,.12,1.17l-0.58.2c-1,.93.24,2.07,0.12,3.15,0.57,1,1.93,1.91,1,3.24,0.66,1,2.5,1.77,1.86,3.33-0.3,1.11,1.48.42,1.52,1.34a1.8,1.8,0,0,0-.12.27,13.69,13.69,0,0,1,2.26.14c2.55,0.38,4.33,1.06,7,.68a55.37,55.37,0,0,1,7.81-.4c2.52,0,4.32-1,6.69-1.64,4.38-1.26,8.9-2.48,13.36-3.41,4.66-1,9.61-1.24,14-3.19a11.14,11.14,0,0,0,6.07-1.2c0.93-.41,1.85-0.84,2.81-1.2,1.3-.49,1.32.3,2.56,0.25,3.42-.12,5.93,5.12,10.28,2.68,1.61-.91,3-0.23,1.34,1.26-1.1,1-2.81,1.08-4.19,1.34-2.82.54,0.07,1.89-1.37,2.88-1.58.61-1.79-1.27-2.08-2.32-1.81.88-6,2.52-2.09,4.52,1.13,0.58,2.62.82,3.44,1.88,1.41,1.83-1.11,2.17-2.4,1.51-3.11-1.6-7.33-2.2-9.9-4.48-3-2.71-7.29-.42-10.63.85-3.71,1.41-7.35,3-11.11,4.28s-8.12,1.62-11.88,3.12c-6.8,2.71-14.39,2.46-21.45,4.09-3.85.89-8,2.63-10.15,6.08-2,3.29-1.94,7.42-3.88,10.88a7.86,7.86,0,0,1-4.66,4.11c-1.94.76-2.6,2.26-3.46,4.12-1.52,3.33-3.48,6.35-3.31,10.12,0,0.72.65,2.1,0,2.72-0.74.79,0.07,1,.21,2a15.43,15.43,0,0,0,1.36,4.89c1.83,3.81,3.32,7.76,5.48,11.37,4.63,7.71,6.05,15.67,7.84,24.34,2,9.9,8.62,18.3,13.9,26.68,5.63,8.92,12.13,17.07,16.75,26.62,1.21,2.52,2.31,5.1,1.18,7.82a20.23,20.23,0,0,1-3.28,4.94c-1.59,1.92-.88,3.44-0.35,5.82,0.34,1.52,1.78,2.59,1.32,4-0.25.76,0.64,2.51,0.68,3.39a9.78,9.78,0,0,1-.33,3,6.31,6.31,0,0,1-3,4.17,6.07,6.07,0,0,1-8.34-3.27c-1.91-4.45-1.67-9.59-2.21-14.31l-1-.24,0.81-.89s0,0,0-.06a11.32,11.32,0,0,1-3.71,1.28c-0.92-3.09-.46-5.53-1.95-8.66-1.25-2.56-3.08-5.17-3.75-7.69-1-2.54-.72-5.82-1.66-8.63-0.85-2.25-2.64-3.92-3.09-6.35a55.18,55.18,0,0,1-4.34-9.23c-1.81-5.24-5.17-9.42-8-14.18-2.55-4.32-4.51-8.91-6.8-13.36s-4.81-9.07-8.2-12.9c-3-3.36-4.42-7.6-8.08-10.5-4.07,6.43-8.43,12.69-12,19.43-3.39,6.4-5.66,13.32-9,19.78-1.72,3.3-3.5,6.55-5.21,9.85-1.49,2.88-2.4,6.07-3.87,9-0.26.52-.53,1-0.8,1.54A80.29,80.29,0,0,1,59,328.28c-1.08,3.64-2.18,7.94-3.59,11.57-1.78,3.08-2.78,4-5.91,3.52a8.64,8.64,0,0,1-2.63,5.91c-1.82,1.73-2,4.9-3.15,7.11-2.18,4.08-10.83,5-12.53-.06-1.95-5.73,3.6-11.4,5.3-16.51C21.15,336.75,44.11,310,47.62,304.45Z" transform="translate(16.23 -59.93)"/>
        </g>
        <g id="man10">
          <path d="M-14.86,211.88c1,4,1.93,8.08,3.19,12s3,7.76,4.16,11.79a102.23,102.23,0,0,1,3.77,26.16c0.11,9-.15,17.93.29,26.89,0.11,2.23-.29,10.6,1.84,11.41a22,22,0,0,0,5.76,1.19c1.49,0.14,1.13.34,1.26,1.67a11.41,11.41,0,0,1-.09,3c-0.45,3.45,2.23,5.72,5.35,6.44a12.38,12.38,0,0,0,4.78.15c2.34-.38,1.63-3.83,1.13-5.44a24.57,24.57,0,0,0-2-4.19,15.12,15.12,0,0,1-1.07-2.46c-0.46-1.46,0-1.83.54-3.19,0-5.67-.92-11.36-1.37-17-0.42-5.4-.81-10.8-1.46-16.17A47.52,47.52,0,0,0,10,256.88c-0.74-2.63-1.76-5.23-2-8-0.15-10.77-2.84-21.31-2.94-32.08,4.23,4.26,6.6,10.13,9.41,15.34,3,5.57,5.33,11.48,8.42,17s6.38,10.28,8.6,16.12c2.37,6.22,6.06,12,9.1,18,1.47,2.85,2.9,5.73,4.21,8.66,0.55,1.24.37,2.38,0.66,3.68a14,14,0,0,1,.22,2.91c1.4,2.25,3.25,3.48,4.94,5.35s2.32,4.57,4,6.53,5.95,6,8.69,3.66c3.37-2.9-.2-10.34-3.2-12.31,2.58-1.29,2-5,2-7.37,0-1.48.47-3.26,0-4.64-0.63-1.9-1.63-3.62-1.82-5.65-3.66-6.66-8-12.89-12.3-19.18a146.15,146.15,0,0,1-11.75-19.73c-1.6-3.41-3.53-7.25-4-11a81.87,81.87,0,0,0-2.77-12.69A98.35,98.35,0,0,0,25.55,211C24.11,207.7,22,204.67,22.11,201a25.83,25.83,0,0,0,.06-4.25c-0.1-.91-0.47-1.11.08-1.86a6.78,6.78,0,0,0,.9-1.74c1.17-3.26.81-7,.53-10.4-0.3-3.66.83-6.46,2.59-9.64a62.06,62.06,0,0,0,4.48-9.39c0.59-1.65,1.21-3.14,2.87-3.82a8.82,8.82,0,0,0,3.83-3.23c3.31-1.49,5.23-4.64,7.07-7.6,1-1.56,1.17-3.06,2.21-4.73,1.38-2.22,3-4.29,4.51-6.4,2.74-3.74,5.76-7.18,8-11.25,1.05-1.91,2-3.86,3-5.81,0.56-1.12,1.11-2.23,1.69-3.34,0.83-1.59.88-1.78,2.66-1.19,2.61,0.86,7.85,5.36,10.73,3.38-1.29-1.17-2.76-2.11-4.12-3.18-1.19-.94-2.2-2.76-3.48-3.35-2-.93-2.89-3.37-5-4.13-3.18-1.13-6.38,2.4-8.55,4.18-4.56-.34-0.93,4.18,1.18,1.76-2.66,4.11-7.41,7.51-9.35,12-0.8,1.83-1.08,3.84-2,5.64-1.06,2.15-3.21,3.93-4.8,5.69-0.69.77-1.38,2.1-2.32,2.27-0.78-.77-0.09-1.75-0.24-2.73,0.6-1,2.15-2.17,1.07-3.52-1.71-1.38-.65,1.55-2,1.56a0.83,0.83,0,0,1-1-.64l0.79-.27c0.21-.29.68-0.66,0.48-1a4.2,4.2,0,0,0-.86.32,0.81,0.81,0,0,1-.89-0.3c-0.19-1.78,1.61-3.62.23-5.25-0.51-.5-1.22-0.15-1.85-0.22-0.56-.72.45-1.47,0-2.21-0.34-.13-0.63.24-1,0a2.7,2.7,0,0,1-1-1.3c-0.28-1.37,1.33-1.75,1.27-3a4.53,4.53,0,0,1-1.19,0,7.29,7.29,0,0,0-.76-3.52c0.18-.88-0.43-1.49-0.81-2.21a1.13,1.13,0,0,1,.41-0.23c0-.12.15-0.3,0-0.36a2.14,2.14,0,0,0-.73,0c-0.48-.37-1.27-0.25-1.61-0.84a3.58,3.58,0,0,0-2.41-3,29.12,29.12,0,0,1-2.5-2.49,2.93,2.93,0,0,0-2.32-.19c-1.14.2-.89-1.68-2.13-1.44a2.11,2.11,0,0,0-1.32,1.11c-1.32,1.42-2.64-.69-4-0.07a3,3,0,0,0-1.13,2c-0.67,1.06-1.31-.35-2.31-0.22a2.69,2.69,0,0,0-2.74,1.14c0.15,1.71-1.6,2.64-1.61,4.36,0,0.46.28,1.19-.34,1.4A1.46,1.46,0,0,1,5.46,117c-0.15.15-.42-0.18-0.48,0.12a5.77,5.77,0,0,0,.9,1.44,0.72,0.72,0,0,1-.47.06,0.91,0.91,0,0,0-.7.87c0.52,0.78.19,1.81,0.12,2.75A3.34,3.34,0,0,0,3,125.4a4.38,4.38,0,0,0,1.36,2.69c0,0.51-.83.63-0.74,1.11-2.06.87,0,3-1.46,4.18l-0.85-.49c-1.65-1-2.77-.54-4.13-1.77a27.78,27.78,0,0,0-3.92-3.48A189.66,189.66,0,0,0,6.68,111.59c1.07-1.38,2.15-2.75,3.25-4.1s1.34-2.78,2.48-3.77c2-1.79,1.61-4.52,3.27-6.74,0.7-.95,1-1.85-0.41-2.29-1.22-.37-1.46,1.07-2,1.88-1.75,2.52-2.06-3-2.19-4-0.3-2.29,1.25-9.16-2.44-9.36C8.1,89.44,7,95.63,7.51,101.9c0.16,2.09.29,2.11-1.44,3.3-1.35.93-2.65,1.93-3.91,3C-0.1,110-2.23,112-4.33,114.08s-4.17,4.09-6.33,6.06c-0.6,1.94-2.77,4.53-4.12,6-0.53,2.6,1.2,4.14,2.47,6.22s2.67,4.52,4.74,6.14c-0.05.39-.7,0.06-0.59,0.59l1.91,2.13a42,42,0,0,0,4.06,4c1.67,1.41,3.09,2.07,4.15,4s0.89,2.92-.18,4.76c-1.4,2.4-2.64,4.35-2.28,7.27-0.76,3.87-2.11,7.6-2.88,11.47-0.39,1.91-.35,4-0.91,5.83s-1.41,3.54-1.95,5.37c-0.82,1.32-2.34,2-3.2,3.13-0.69.93-1.69,2.21-2.62,3.31C-17.42,196.87-16.73,204.2-14.86,211.88ZM33,122.75c-0.14.09-.13,0.49-0.42,0.28A0.29,0.29,0,0,1,33,122.75ZM3,133.56a2.1,2.1,0,0,1-.1.2l-0.15-.08A2.08,2.08,0,0,0,3,133.46Zm6.41-21a1.87,1.87,0,0,1,1.14-.5C10.18,112.24,10,113,9.41,112.57ZM4.51,126.8l-0.2.27A2.85,2.85,0,0,1,3.56,125a2.25,2.25,0,0,1,.86-1.72A4.08,4.08,0,0,0,4.51,126.8Zm6.77-15.75c-0.8.18-1.65,0.74-2.5,1A1.83,1.83,0,0,1,10.19,111,3.42,3.42,0,0,1,11.28,111.05ZM16,109.43a3.31,3.31,0,0,1-1.71.45,0.78,0.78,0,0,1,.87-0.68A2.67,2.67,0,0,1,16,109.43Zm2.15,0.28c-0.1.07-.19,0.18-0.32,0.09C17.87,109.62,18,109.68,18.15,109.71Zm2.23-1.17a1.49,1.49,0,0,1-1,0C19.65,108.38,20.18,108,20.38,108.53ZM24.25,110a3.11,3.11,0,0,1-1.3.1l0,0a0.8,0.8,0,0,1-.36-0.27l-0.12-.18A1.88,1.88,0,0,1,24.25,110Zm4.1,4.13c-0.85.26-1.11-.71-1.2-1.34l0-.15A2.63,2.63,0,0,1,28.35,114.11ZM32,120.78L32,121l0-.47ZM35.11,129c0.73-.44,1.22.34,1.28,0.93l-0.07.35A4,4,0,0,0,35.11,129Zm3.25,8.06c-0.36,0-.24-0.48-0.55-0.6a2.45,2.45,0,0,0,1.32-1.87,1.07,1.07,0,0,1,.36.81C39.51,136.26,38.75,136.57,38.36,137.11Z" transform="translate(16.23 -59.93)"/>
        </g>
        <g id="man9">
          <path d="M780.42,213.19c1.65-.74,4-2.43,3.06-4.53a5.91,5.91,0,0,0-2.22,1.7c-1.22,1.11-2.92.69-4.45,0.71-3.69.06-7.38,0.33-11.08,0.34a40.68,40.68,0,0,1-11.08-1.48c-2.67-.75-6-2.36-8.81-1.45-1.06.35-2.06,0.19-3,.71a5,5,0,0,1-4.21.51c-1.34-.6-2-1.54-3.45-1.63s-3.14.24-4.77,0.27c-3.19.06-6.28-.81-9.45-1-3.36-.23-6.25-0.14-7.58-3.77-1.09-3,1-4.15,3.47-4.41,2-1.9,3.46-4.65,4.69-7.15a19.74,19.74,0,0,0,1.81-8l0.28-.17c0.22-.34.83-0.7,0.17-1a0.72,0.72,0,0,1,.51-0.43c0.13-.24-0.22-0.32-0.24-0.49,0.36-.3-0.3-0.35-0.14-0.59a7.17,7.17,0,0,0-.42-1.22c-1,0,.14-1-0.55-1.32-0.07-.48-0.29-0.8-0.37-1.22a10,10,0,0,0-1.81-1.48,1.29,1.29,0,0,0-1-.94c-0.63.25-.89-0.63-1.42-0.59-0.17-.6-0.77,0-1-0.61a1.51,1.51,0,0,1-1.27-.66,0.69,0.69,0,0,1-.72-0.39,0.52,0.52,0,0,0-.54.18c-0.62-.16-1.21.31-1.87,0.23-0.86.73-1.72,0.16-2.67,0.3a1.62,1.62,0,0,1-1.17.37,3,3,0,0,1-1.46.87c0,0.08-.07.22,0,0.28a5.76,5.76,0,0,1-1.33.66,1.68,1.68,0,0,1-.51.84c-0.07.49-.65,0.44-1,0.77a0.38,0.38,0,0,0,.11.34l-0.15.13a1.76,1.76,0,0,0-1,1.3,2.17,2.17,0,0,1-.85.54c-0.34.39,0.41,0.42,0.35,0.8a4.5,4.5,0,0,0-.61.94c0.19,0.32-.28.7,0.27,0.77,0.2,0.57-.53.67-0.51,1.14a1.74,1.74,0,0,0,.26.21c-0.46.49,0.23,0.88-.52,1.23-0.3.28,0.19,0.43,0.37,0.5-0.22,0-.1.27-0.23,0.37l0.5,0.32c-0.67.69-.1,1.18-0.31,2a0.7,0.7,0,0,0,.66.72l0.19-.07h0c-0.14,3.44-1.76,6.09-2.54,9.44-0.54-.46-1.64-0.23-1.55-1.25-0.64.56-1.27,2.51-1.93,0.64a12.35,12.35,0,0,0-2.32-3.7c-2.27-2.49-5.62-3.09-8.45-4.76a46.26,46.26,0,0,1-4-2.94c-1.19-.89-2.32-0.68-3.38-1.45-2.66-1.92-3-5.88-5.58-8-5.14-4.24-9-9.76-12.66-15.27-1.86-2.81-3.68-5.64-5.61-8.4-1-1.39-2.4-1.34-3.18-3a12.18,12.18,0,0,1-1.1-5.27c-2.17.45-1.32,3.53-.94,5-1.73,1.86-3.54,4.16-2.88,6.88a2.11,2.11,0,0,0,1.75-1.64c0.21-1,1.57-1.31,2.63-1.75,0.09,0.67-.53.65-0.92,0.93-0.6.44,0.06,1.82,0.23,2.32,0.57,1.63-.75,1.39-1.71,2.4-1.67,1.77,1,1.42,1.87,1.52,1.69,1.33,3.36,2.58,5.58,2.8,4.87,5.33,5.51,13.19,8.84,19.39,1.74,3.25,4.7,5.3,6.68,8.27,1,1.54,1.74,3.26,2.64,4.88a34.77,34.77,0,0,1,4.59,5.19c1.21,1.89.6,3.29,1,5.39a49.93,49.93,0,0,0,1.64,6c1.59,4.85,1.71,9.64,1.79,14.73,0.08,4.69.3,9.54-.41,14.18-0.32,2.14-.26,4.44-0.83,6.51-0.65,2.36-1.62,4.61-2.41,6.93-1.49,4.35-.74,8.42-0.45,12.94,0.31,4.95.54,9.89,0.8,14.84,0.24,4.49.39,9,1,13.47,0.29,2.18.64,4.35,0.8,6.55,0.09,1.26.5,2.07-.77,2.71a9.21,9.21,0,0,0-2.81,2.88A85.62,85.62,0,0,0,671.64,318c-2,3.5-3.65,7-5.35,10.62-0.9,1.93-1.42,4.4.19,6.13a29,29,0,0,0-4,6.54,13.29,13.29,0,0,0-.15,8.11c0.78,2,5.29,1.24,7,1.07,1.15-.11,2.3-0.26,3.45-0.42,1.3-.18,1.15-1.67,1.22-2.82,0.14-2.34-.27-4.94.66-7.17,0.53-1.25,3.79-.89,5.05-2.31a6.08,6.08,0,0,0,1.21-2.3,17.86,17.86,0,0,0,3.41-2.95c3.31-3.64,5.29-8.23,7.81-12.4,1.16-1.93,4-2.94,5.71-4.49a9.89,9.89,0,0,0,3.22-6.59c1.38-10.29.71-21.47,0-31.81,5.58,2.64,10.29,7.39,15.46,10.76a44.25,44.25,0,0,1,7.87,6,25,25,0,0,0,7.62,5.85c-1.79,2.41-1.76,4.05-1.79,7q0,4,.05,8a117.88,117.88,0,0,0,1.45,16.52c1.18,1.77.38,2.9,0.81,4.83a3,3,0,0,0,.95,1.74c0.93,0.76.73,2.18,0.79,3.4,0,1,.07,2,0.15,3,0.12,1.49.9,1.58,2.26,2a13.41,13.41,0,0,0,7.26.18c6.36,2.41,16.51,3.75,22.53-.2,0.51-2.5-.21-3.75-2.66-4.17a18.31,18.31,0,0,1-6.34-2.48c-0.89-.49-0.65-0.69-1.29-1.31a3.61,3.61,0,0,1-2.44-.78c-0.94-.54-3.53-1-3.74-2.36,1.09,0,1.72,1.29,2.62,1.7A5.57,5.57,0,0,0,751,335.2c-1.07-.69-0.65-1.23-0.86-2.45-0.37-2.13-1.08-4.07-.85-6.25a59.1,59.1,0,0,0-.09-14.43c-0.56-3.93-.94-7.09,0-11s1.45-7.71-.45-11.39a20.6,20.6,0,0,0-3.11-4.25c-1.3-1.44-2.06-3.14-3.25-4.66a61.26,61.26,0,0,0-8.91-8.82c-3-2.51-5.54-5.54-8.41-8.18a28.94,28.94,0,0,0-4.42-3.81c-1.53-1.27-3.47-2.11-4.6-3.8-0.89-1.31,0-4,.15-5.55,0.16-2,.26-4.1.4-6.14,0.29-4.35.81-8.38,2.72-12.32a40.38,40.38,0,0,0,2.31-5.9c0.56-1.86,2.92-2.38,4.69-3a37,37,0,0,1,6.18-1.42c2.31-.34,3.75-1.37,5.86-2a10.69,10.69,0,0,1,5.89-.64,28,28,0,0,0,6.66.24c4.9-.35,9.67-1.59,14.52-2.26,2.44-.34,3.39.55,5.61,1.18,2,0.38,4-.25,6-0.57,2.2-.35,1.94.49,0.6,1.66-0.81.7-2.65-.93-3.47,0.91-0.52,1.17,2.47,1.23,3.28,1.36a20.41,20.41,0,0,0,3.58-2.43c-0.1,1.19-.53,3.69,1.27,3.84a15.92,15.92,0,0,0,.71-5.79C783.05,214.48,782.06,215,780.42,213.19ZM652,156.69a1.66,1.66,0,0,0,0-1.76,1.86,1.86,0,0,0,.7-0.13C652.72,155.53,652.81,156.39,652,156.69Z" transform="translate(16.23 -59.93)"/>
        </g>
        <g id="man8">
          <path d="M709.62,153.77c1.23,1.8,2.48,2.89,3.38,4.91,1.26,2.82,3.9,5.35,5.57,8a92.2,92.2,0,0,0,3.48,11.73c0.59,1.65,1.21,3.29,1.83,4.93,0.83,2.22.39,3.58,0.72,5.82,0.24,1.65,1,2.67.57,4.31-0.46,1.81-.53,3.57,1.29,4.39a3.38,3.38,0,0,1-1.11.55,19.88,19.88,0,0,1,.7,3.22c0.35,2.49.46,4.23-.7,6.34-0.17,4.7-.27,9.62-1.73,14.13-1.3,4-.89,9.33-1.55,13.62-0.38,2.45-.75,4.89-1,7.36-0.14,1.63.52,5.2-.82,6.29-0.93.76-.63,4.62-0.7,5.84-0.14,2.19,2.8,3,4.82,3.43,2.25,0.46,1.71,4,1.77,6.1a39.52,39.52,0,0,0,.56,7.08c1.16,1.71,2.83,2.47,4.17,3.94,1.65,1.81,3.12,3.79,4.89,5.49,1.61,1.54,2.56,3.85,3.95,5.66,1.74,2.27,2.09,3.39,1.54,6.24-0.36.28-.85-0.71-1.39-0.55,0.15,0.69-.48.88-0.42,1.52,0.32,0.56.83-.21,1.25,0.14-0.51.73-1.24,1.26-1.8,1.94,0.56,0.25,1.12-.77,1.52-1-2.32,4-3.41,9.28-2.05,13.74,0.61,2,3.31,2.14,5.16,2.2,1.53,0,1.19-.28,1.16.83s0.73,0.29,1.14.4c0,1-.68,1.47-0.83,2.36a0.32,0.32,0,0,0,.55-0.14c-0.12,3.49-1.9,6.78-1.7,10.29,0.13,2.27.82,2.07,2.84,2.22s4.1,0.29,6.16.29c3.38,0,6.77.39,7.44-3.46,0.61-3.54-.62-7.23-1.21-10.73a46.76,46.76,0,0,0-1.06-5c-1.15-1.64-2.23-2.6-1.81-4.69,0.75-3.77,1-7.64,2-11.35,0.89-3.22,1.45-6.79,2.17-10.12,1-4.48.35-8.7,0.68-13.18,0.12-1.72.48-3.41,0.75-5.11,0.14-.83.25-1.66,0.31-2.5,0.13-1.91.57-1.2,2.2-1.68,2.53-.75,5.44-2.36,5.92-5.05,0.54-3.07-.38-5.65-0.22-8.52,0.22-4.13,0-8.26-.15-12.38-0.09-3.69,1-7.95.41-11.5-0.62-3.79-1-7.62-1.32-11.46a56.41,56.41,0,0,0-1.61-11.17,27.43,27.43,0,0,1-.76-4.79c-0.21-1.88.08-2.44-1.5-2.84-0.2-.48,1.1-0.81,1.11-1.39a6.23,6.23,0,0,0-1.11-3.88c4.68,3.06,10.23,4.43,15.38,6.47,5,2,7.58,9.62,13.71,10,0.55-1.48-3.34-4.05-4.57-4.43,0.86-.86,2.12.06,2.79-1.14a1.22,1.22,0,0,0,0-1.49,1.59,1.59,0,0,0,1-1.32q-0.85-.86.25-1.14a1,1,0,0,0,.18-1.39,3.12,3.12,0,0,0-2.57-1.42c0.84-1.13,1.51-2.5,2.91-3a7,7,0,0,0,.65-2.18c0-.73-0.84-1.48-1.43-0.63-1.14,1.67-1.67,2.73-4.05,2.69a21.6,21.6,0,0,1-7.5-1.4c-3.71-2.51-7.19-5.33-10.93-7.8a49.39,49.39,0,0,0-6.53-3.7c-0.31-1.84.21-3.15,0.09-5.07-0.28-4.46-1.75-8.46-2.87-12.8q-0.82-3.17-1.51-6.37a37.48,37.48,0,0,0,6.6-3.83c1.68-1.2,3.29-2.49,4.9-3.79,0.46-1.79,2.17-2.54,3.74-3.14,1.15-.44,3.75.28,3.6-1.71-1.54-1.39-3.65-.12-5.4-0.55,0.26-1.88,3.35-1.34,4.61-1.34,2.39,0,3.81-2.75,1.48-4.09-2.86-1.64-6.64-1.17-9.4.09a41.53,41.53,0,0,1-4.3,1.61,41.38,41.38,0,0,0-3.65,4.48c-0.92,1.24-1.84,2.49-2.86,3.65-1.67,1.9-2.18,2.42-4.63,1.9-3-.63-6.41-1-8.93-2.91-2.22-1.67-2.57-6.57-3.62-9.08-0.64-1.5-1.4-2.36-1.53-4a16.22,16.22,0,0,0-1.51-4.72c1.67,0.47,2.68.77,1.63-1.49a14.36,14.36,0,0,0-3-3.64,2.06,2.06,0,0,0-.83.14,20.92,20.92,0,0,0-1.23-2.74,15.07,15.07,0,0,0-3.55-4.4,14,14,0,0,0-4.24-2.38c-0.29-.1-2.19-0.42-2.12-0.79,0.14-.82-0.61-0.74-1.35-0.83a7.55,7.55,0,0,0-4.73.9,6.46,6.46,0,0,0-1.9,1.66,4.47,4.47,0,0,0-2.66.48c-1.54.85-.9,2.67-2.06,3.32s-1.53,2-1.81,3.39c-0.67,3.2-.63,7.14.85,10.12a32.7,32.7,0,0,0,3.25,4.63,9.55,9.55,0,0,0,2.16,2.16,6.47,6.47,0,0,0,1,2.47c0.62,0.86,2.19,2.35,3.38,1.87s3.08,1.43,4.73,1.47c-1,3.37-4.89-.23-7-0.39-2.75-.21-5.8,0-8.14,1.59-2.84,2-2.73,5.32-3,8.48C708.37,151.21,708.41,152,709.62,153.77Zm56,38.59c0.86,0.76.35,2.89,0.83,4C765.68,195.75,765.49,193.06,765.67,192.35ZM741,293.88a7.61,7.61,0,0,0-1.11-.28C740.27,293.65,740.67,292.7,741,293.88Zm3.46-46.68a44.18,44.18,0,0,1,.83-5.82C745.1,243.39,745.92,246.43,744.48,247.21Zm0,0.28a15.55,15.55,0,0,1-.28,3.05A8.77,8.77,0,0,1,744.48,247.48Zm1.11,64.27a1.1,1.1,0,0,1,.42-0.69A0.59,0.59,0,0,1,745.59,311.75Zm-6.37-46.41c0.19-1.3.46-2.61,0.66-3.91,0.29-1.95.39-1.12,1.79-2,1.83-1.16,2.41-3.4,2.55-5.43,0.49,1.75,1.9,2.84,3,4.15a65.74,65.74,0,0,0,.42,8c-0.6,3-.9,6.12-1.53,9.14C745.31,271.14,743.13,267.32,739.22,265.35Zm-13-64.82a12.23,12.23,0,0,0-.42-1.8,1.09,1.09,0,0,1,.42-0.14C726.08,199.19,726.64,200,726.2,200.53Z" transform="translate(16.23 -59.93)"/>
        </g>
        <path id="man7" class="cls-3" d="M619.3,341.39a17.76,17.76,0,0,0-1.75-3.19c-0.81-1-1.7-1.91-2.44-3-0.3-.42-1.37-1.62-0.67-2a2.74,2.74,0,0,0,1.14-.55A8.4,8.4,0,0,0,616,329a17.61,17.61,0,0,1,0-4c0.22-1.52.19-3.07,0.27-4.6,0.18-3.3,1.17-6.4.91-9.73-0.26-3.18-.38-6.34-0.52-9.53a76,76,0,0,0-.89-9.58,31.88,31.88,0,0,0-.91-3.9,9.18,9.18,0,0,1-.39-4.18,20.1,20.1,0,0,0-.82-8.88,49.48,49.48,0,0,1-1.75-7.59,69.72,69.72,0,0,0-1.75-8.35,21.1,21.1,0,0,1-1.15-3.6,34.39,34.39,0,0,0-.78-4.2,65.66,65.66,0,0,1-1.52-8.55,25.47,25.47,0,0,0-.66-8.12c-0.62-2.53-1.57-4.75-1.75-7.38a70.24,70.24,0,0,1,0-7.59c0.22-5.36.77-10.79,0.22-16.14a24.79,24.79,0,0,0-.69-3.91c-0.33-1.23-1-1.89,0-2.93a33.05,33.05,0,0,1,2.64-2.13,7.47,7.47,0,0,0,1.5-2.94,6.71,6.71,0,0,1,1.07-2.13,10.41,10.41,0,0,0,.95-1.67c0.57-1.23,1-2.53,1.46-3.8a44.8,44.8,0,0,0-2-8.39,59.39,59.39,0,0,1-2.53-18.51c0.12-3-.65-5.76-0.65-8.69a19.75,19.75,0,0,0-.24-3.89c-0.36-1.79-1-.44-1.21-0.68-0.14-1,.19-2.64-0.73-3.3-2.05,1.57-.29,6.24-1,8.46-0.65-2.92-.79-6.25-2.46-8.82-1.59.58-.27,3.44-0.09,4.5a19,19,0,0,1,.34,5.1c-1.25-2.05-1.65-4.75-3.55-6.36-1.24,1.23.29,3.15,0.71,4.39,0.57,1.7,1.41,3.39,1.36,5.23s-1.84-.43-2.12-0.85c-0.55-.85-1.23-1.56-2.33-1.23a14.49,14.49,0,0,0,2.57,5.55,11.43,11.43,0,0,0,2,2.68,3.61,3.61,0,0,1,1.64,1.86c0.92,3.92.53,8.15,0,12.09a14.38,14.38,0,0,0-.05,5.87c0.25,1,.57,1.92.78,2.91s0.61,1.75-.29,2.08A42,42,0,0,0,597,186a34.19,34.19,0,0,1-5.3,2,9.53,9.53,0,0,1,.43-4.14c0.48-1.22,1.59-1.54,1.84-2.82,0.32-1.66-.58-2.72-0.46-4.22a9.85,9.85,0,0,0-.42-4,8.82,8.82,0,0,0-4.35-4.69,30.08,30.08,0,0,0-3.15-1.45,11.84,11.84,0,0,0-4.09-.51,10.32,10.32,0,0,0-3.63,2.33c-1.2,1.14-1.55,2.59-2,4.15-0.27.91-.53,1.82-0.83,2.73a6.51,6.51,0,0,1,.09,2c-0.12,1.22-.51,2.61-0.06,3.8a17.47,17.47,0,0,1,.58,4.44c0.16,1.6,1,2.22,2.19,3.15,0.95,0.74.31,3.1-.14,4.09s-2,.08-2.72-0.31c-0.64,3.79-5.82,4.52-8.71,5.85-3.11,1.45-7.7,3.62-9.35,6.81-1.89,3.66-3.59,7.48-6.07,10.8-0.71,1-2.7,3.14-2.35,4.47,0.49,1.84-1.43,2.37-2.62,3.43-1.09-.08-4.21.24-4.89,1-1,1.11-3.2,1.18-4.49,2.05-2.82,1.91-6.3,2.57-9.48,3.64a17.61,17.61,0,0,0-4.73,2.24c-1.58.35-2.57,1.8-4.12,2.22-0.95,1.39-2.56,2-4,2.86-0.79.46-3.41,2.36-.94,2.5-0.85.75,0.24,1.36,1,1.17a13.44,13.44,0,0,0,3.06-1.73c2-1.17,4.55-.53,6.71-1.65,1.39-.72,1.79-1,3.36-0.77,1.2,0.19,2.34,0,2.81-1.23,0.31-.83.81-0.52,1.68-0.51l2.34,0c1.54,0,3.08,0,4.63,0a31,31,0,0,0,8.3-1.06c2-2,4.46-3.57,6.6-5.46a21.13,21.13,0,0,0,1.53-1.5c0.51,0.6,1,.12,1.32-0.27a7.9,7.9,0,0,1,1.58-1.36c0.36-.63.74-1.24,1.14-1.85a50.48,50.48,0,0,1,5.41-6.49c0.8,4.07,3.15,7.74,4.43,11.67,0.71,2.16,1.42,4.34,1.93,6.56,0.56,2.43,0,4.86-.34,7.3-0.22,1.77-.92,4.77,0,6.37,0.66,1.11-1.25,4.17-1.85,5.11a81.71,81.71,0,0,0-5.8,11.25c-1.79,4-3.17,8.33-4.56,12.52s-3.15,8-4.7,11.95c-0.75,1.92-1.66,3.79-2.21,5.78a9.61,9.61,0,0,0,.52,5.29,9.41,9.41,0,0,0,5.73,5.83A21.51,21.51,0,0,0,555,318.54c0,1.71-.34,4.18,1.49,5,1.4,0.61,3.82,1,5.16.1,2.95-1.93,4.76-5.06,5.92-8.31a39.68,39.68,0,0,0,1.51-5.74,16.06,16.06,0,0,1,1.1-2.53c0.36-.95.73-0.88,1.56-1.39a7.43,7.43,0,0,0,3-3.28,8.23,8.23,0,0,0,.67-2.76c0.05-.71-0.3-1.91.23-2.44,1.07-1,1.48-2.8,2.2-4.12a37.53,37.53,0,0,0,1.89-3.74,14.18,14.18,0,0,0,1-5.43,30.1,30.1,0,0,1,2.72-5.6c1-1.82,1.32-3.91,2.18-5.8a20.14,20.14,0,0,1,2.62-4.31c0.12,4.5,1.65,8.68,2.61,13a14,14,0,0,0,3.14,6,20.55,20.55,0,0,1,1.25,6.76c-0.17,5-.17,10,0.13,15,0.14,2.21.33,4.42,0.6,6.62s0.29,4.32.48,6.51a20.49,20.49,0,0,0,.93,4.33c0.33,1.07-.17,2.36-0.15,3.51s0.07,2.05,1.36,2.38,2.81,0.08,3,1.49c0.25,2.54-1.29,7.33.75,9.19a7.35,7.35,0,0,0,1.52,1,5.88,5.88,0,0,0,.59,1.72,7.78,7.78,0,0,0,2.25,2.46,12.21,12.21,0,0,0,7.81,2.41c1.45,0,2.91.16,4.36,0.16s2.06-.34,2.12-1.82A14,14,0,0,0,619.3,341.39Z" transform="translate(16.23 -59.93)"/>
        <g id="man6">
          <path class="cls-3" d="M467.6,207.12c-1.63.52-3.45,0.33-5.13,0.57a5,5,0,0,0-1.95.6c0.18,0.88,1.08,1,1.84,1,1.94,0,4.2-.38,6.07.21s3.82,1.68,5.91,1.82a22.61,22.61,0,0,1,2.66,0c1,0.2,2,.56,3.05.84a7.52,7.52,0,0,0,5.8-.37c3.26-1.63,4.85-5,7.36-7.43,0.6,1.37,1.82,2.45,2.2,3.89a17.94,17.94,0,0,1,.58,4.34,30.91,30.91,0,0,1-1.4,8.81c-0.71,2.52-1.55,5-2,7.61-0.08.44-.56,2.83-0.32,3.11,0.9,1.06-.65,2.53.12,3.74a36.23,36.23,0,0,1-1.11,4.31,10.13,10.13,0,0,1-2.15,3.59c-1.08,3.24-2.09,6.5-3,9.8-1.76,6.66-2.41,13.51-4,20.2-0.75,3.08-1.64,6.11-2.58,9.13-0.48,1.57-1,2.73-.71,4.36s0.77,3.27,1.19,5a88.87,88.87,0,0,1,1.52,9.51c0.46,3.34,1.42,6.51,2,9.82,0.44,2.37-.08,4.92,1.57,6.95a4.12,4.12,0,0,0,2.52,1.49,6.23,6.23,0,0,0,1.89,0,23.44,23.44,0,0,1,1.06,2.68,7.25,7.25,0,0,1,.63,4.05,3.93,3.93,0,0,0,.31,3.31,3.26,3.26,0,0,1,.64,1.3c0.18,1-.28.49-0.44,1.19s0.12,0.56-.78.81-0.39,1.34-.48,2c-0.4,3-6.08,11.38-1.2,12.86,3.39,1,12.53.26,11.7-5.05-0.23-1.5-.59-3-0.84-4.48a13.61,13.61,0,0,1,.27-4.33c0.26-1.82-.79-6-3.27-5.9a24.79,24.79,0,0,0-1-3.42,16.54,16.54,0,0,1-.28-3.85c0-1.26.09-2.51,0.07-3.78a7.85,7.85,0,0,0,2.92-3.37c-0.55-3.26-1-6.54-1.29-9.83-0.33-3.54-.14-7-1.41-10.38-1-2.73-2.77-5.72-1.14-8.47s2.34-6.7,3.44-9.84a104.38,104.38,0,0,1,7.85-18c0.76-1.32,1.57-2.6,2.43-3.86,0.43-.11.48-0.61,0.9-0.72,0.6-.12,1.2-0.12,1.81-0.2,1.1-.14,1,0.29,1.43,1.25,0.34,0.7.69,1.4,1,2.11q1.2,2.52,2.25,5.1c2.52,6.15,3.71,12.81,6.48,18.84a93.49,93.49,0,0,1,3.85,8.92c1.14,3.32,1.91,6.77,3.24,10,1.14,2.79,2.62,5.42,3.93,8.13a18,18,0,0,1,1.44,4.18c0.31,1.41.45,3.41,1.95,3.91a5,5,0,0,0,2,.21c0.22,0.62.47,1.23,0.75,1.83,0.55,1.19,1.19,2.34,1.78,3.51,0.83,1.63,3.45,6.72,1.92,8.38-2,2.12-2,5.07-1.14,7.75,1,2.95,0,6.57,0,9.68,0.11,5.32,8,4.63,11.36,3.44a8.5,8.5,0,0,0,2.59-1.37c0.39-.32,1-1.83,1.24-1.93a20.11,20.11,0,0,0-3.15-7.67,28.75,28.75,0,0,1-1.73-3.2,6.3,6.3,0,0,1-.61-2.8,2.74,2.74,0,0,1-2.24-2.26c-0.13-1.2,1-2.19.7-3.44s-1.56-2-2-3.24a19.79,19.79,0,0,1-.87-3.86c-0.2-1.42-.34-2.84-0.53-4.27-0.09-.69-0.19-1.37-0.33-2.06-0.2-1,.67-1.32,1.52-1.83a11.75,11.75,0,0,0,3.29-2.37,6.53,6.53,0,0,0-.71-2.93c-0.45-1.32-.87-2.66-1.42-3.94a13.14,13.14,0,0,0-.9-1.74c-0.6-1-1.27-.67-1.59-1.76-1.82-6.23-4.72-12-7.11-18.07a39.41,39.41,0,0,1-2.65-9.27A77.08,77.08,0,0,0,535,261.42c-1.85-6.54-2.92-13.37-5.37-19.71a75.49,75.49,0,0,0-4-8.13c-1.37-2.59-2.69-5.16-3.82-7.92-2.37-5.78-.22-12.22,1.7-17.86,1.78-5.21.77-12.21,6.14-15.6,2.69-1.7,5.91-2.34,8.47-4.15a91.08,91.08,0,0,1,8.1-5c2.48-1.4,5.35-1.83,7.86-3.33a77.2,77.2,0,0,0,6.79-4.68c1.35-1,2.69-2,4-3.09,1.08-.83,2.51-2.42,3.86-2.71s2.39,0.35,3.68,0c0.82-.23,2.82-1.72,3.36-1.13,1.21,1.35,4.68,1,5.4-.77a4.51,4.51,0,0,0,.14-3.68c-0.35-1.13-.89-2.38-2.23-2.52,0.77-1.85,3.88-2.29,4-4.53,0.06-1.66-1.74-.31-2.4.27A27.16,27.16,0,0,1,577.2,159a27.93,27.93,0,0,1-4,1.86c-1.64.71-3,1.62-4.67,2.18a5.44,5.44,0,0,0-2.07,1.42q-1.54.63-3.1,1.23c-2.08.81-4.18,1.6-6.28,2.39-3.71,1.4-8.21,2.44-11.27,5-1.59,1.35-2.67,3.11-4.54,4s-3.88,1.76-5.85,2.55l-2.27.9c-1.08,0-2.15-.14-3.23-0.14A13.28,13.28,0,0,0,525,182c-0.49.22-1.41,0.83-1.71,0.07s-0.62-.49-1.37-0.63c-1.41-.28-2.5-1.12-4-0.82,0.2-.61.43-2.32,1.28-2.38,1.36-.1.53-2.59,2.2-2.77s2.17-1.48,3-2.76c0.7-1,1.47-3.07,2.55-3.72,0,2.1-1.51,3.49-2.21,5.35,1.66-1.25,2.27-3.54,3.12-5.32,0.47-1,1.49-1.94,1.6-3a28.32,28.32,0,0,0,.39-4.2c-0.19-4.66-4.38-10.38-9.18-11-4.45-.58-9.25,2-11.76,5.61a15.15,15.15,0,0,0-2.49,6.92c-0.19,1.35-.34,2.71-0.56,4.06s-1.13,2.1-1.7,3.26c0.25,0.46.83,2.39,1.64,1.57a4.44,4.44,0,0,0,1.58,2c1,0.81,1.29.63,0.53,1.91-1,1.72-1.68,3.64-3.43,4.68-1.37.81-4.07,1.37-4.75,2.87-0.3.66-2,.5-2.68,0.61a5.82,5.82,0,0,0-3.31,1.28,17.24,17.24,0,0,0-3,4.08c-1,1.92-1.08,4.07-2,6a48,48,0,0,1-3.51,6c-0.56.85-1.12,1.71-1.67,2.57a2.38,2.38,0,0,0-2.69-.08c-0.46-2.44,1.7-3.51,3-5.18,0.34-.46,1.3-2.31.32-2.52-1.71-.38-2.69,1.25-3.63,2.32-2,2.3-5.25,4.39-7.89,1.69-1.87-1.91-3-5.33-6-5.77-0.95,3,4.54,4.79,4,7.58-3.42-.17-5.74-4.35-9.3-4.43-0.91,2.9,6.42,4.35,7.25,6.76-3.08-.79-6.07-2.1-9.3-2.07,0.08,1.87,2.53,2,3.87,2.55C464.11,205.47,467.4,205.78,467.6,207.12Zm83,101.18c0.13,0.18.91,1.31,0.43,1.45A8.44,8.44,0,0,0,550.59,308.3Zm-0.14-.22h0Zm-2.9-7.25a4.05,4.05,0,0,1,1.35,3.1C548.26,303.27,547.22,301.86,547.55,300.83Zm-23.86-70.69h0Zm-1-2.06c-0.12.37-.3-0.39,0,0h0Zm-30.1,6.43c0,0.65-.24-0.39,0,0h0Z" transform="translate(16.23 -59.93)"/>
        </g>
        <g id="man5">
          <path class="cls-3" d="M728.37,178.52c-0.35-2,2.62-3.32,2-5.32s-2.73,2.41-3.48,2.7c-0.55-1.37.85-3.17,1-4.53a1.56,1.56,0,0,0-.68-1.61c-0.95-.57-1,0.92-1.19,1.62-0.26,1-2.27,5.5-2.25,2.05,0-1.42.28-3.49-.64-4.73s-1.36.21-1.31,1.08c0.07,1,.13,2.07.11,3.1,0,1.31-.19,4.3-2,4.31-2.55,0-7.67-3.22-9.12.3,0.93,0.64,2.19.08,3.23,0.48a9,9,0,0,1,2.8,1.91c0.47,2.48,1.55,4-.43,6.14-2.72,2.93-7.12,4.33-9.31,7.76-1.09-1.58-2.74-2.91-3.49-4.63-2.24-3.08-1.79-7.35-2.68-10.9a7.27,7.27,0,0,1,1.54,2.73c0.47,4.15,1.49,8.22,4.94,11l0.08-.08a14.52,14.52,0,0,1-4.25-9.33,12.19,12.19,0,0,0-1.89-4.89c0.69,0.47,1.32,1.29,2,1.79-1.39-2.56-4.82-4.3-5.31-7.22,0.6,0.72,1.22,1.52,1.91,2.21s1.37,1.46,2.21,1.57c-2.7-2.14-4.91-5-4.89-8.34,0.85,2,2.29,4.37,4.3,5.11a10.34,10.34,0,0,1-3.53-4.47c-1.71-3-.1-7.32-3-9.78-1.31-.15-1.71-1.44-2.5-2.31a7.77,7.77,0,0,0-4.17-2c-1.91-.17-3.57-0.72-5.49,0-0.62.84-.94-0.42-1.61,0.17-0.1-.15,0-0.39-0.1-0.54-0.52-.13-0.77.79-1.26,0.89-0.52-.47-0.82.37-1.32,0.37,0.37,1.49-1.37.72-2,1.19a4.48,4.48,0,0,0,.72,1.12c-0.64.7-1.74,0.35-2.43,0.9-0.07.32,0.32,0.32,0.4,0.55-0.47.47-1.31,0.52-1.49,1.24a0.91,0.91,0,0,0,.5.25l-0.25.3c-1.91,2.56-.7,5.69-0.35,8.56,0.22,2.16,2.68,3.45,2.44,5.74a10.26,10.26,0,0,1,1.3,6.73,2.8,2.8,0,0,1-.71-0.34,2.84,2.84,0,0,0-2-.57c-1-1.31-2.59-2-3.78-3.06s-1.72-3.48-2.43-5.08-2.25-2.78-3.61-3.89a36.16,36.16,0,0,1-4.56-4.15c-1.14-1.33,1.27-2.94.4-4.72-1.17-2.39-2-1.08-3.87-1.12-1.45,0-2.78-2.62-4-3.4-0.73-2-1.66-3.89-1.82-6-0.36-.65-1-3.37-2-1.88-1.42,2.06.84,7,1.54,9.06-1.06-.54-2.85-0.4-2.85,1.14-1.4-.23-2.55.42-1.94,2.17a2,2,0,0,0-1.83,1.37c1.07,2.32,2.45,4.67,5.47,4.11a7,7,0,0,0,3.2,1.46c1.29,0.34,1.69,1.31,2.41,2.37,2.6,3.83,4.85,8,8.09,11.29,1.61,1.65,3.22,3,4.74,4.73s1.62,3.39,3.14,4.93a32.79,32.79,0,0,1,8,12.77c1.37,3.84,4,8.51,3.94,12.64,0,3.25-1.47,6-2.24,9.12a12.69,12.69,0,0,0-.41,3.15,6.4,6.4,0,0,0-1,1.93,13.71,13.71,0,0,1-.83,2.06c-0.51.92-.09,1-0.16,1.94-1.35,2.76-3.59,7.89-3,10.92,0.4,2.09.08,4.29,0.65,6.34a51.41,51.41,0,0,0,1.86,5.47,93.32,93.32,0,0,0,4.81,9.86c1.89,3.44,3.83,6.85,5.49,10.41,1.44,3.08,3.29,8.13.69,11.09-5.68,6.49-10.33,13.79-15.16,20.91a120.87,120.87,0,0,0-6.86,10.5,3.81,3.81,0,0,0-.42,2.49c0.25,1.14.07,0.68-.85,1.52a6,6,0,0,0-2.23,4.05c-0.14,3.57,2.53,7.2,3.53,10.56,0.91,3.08,2,7.61,5.26,9,4.09,1.74,8.51,1,8.8-4,0.23-4-2.47-7.54-3.59-11.3,2.48,1,3.9-3.57,4.75-5.06,1.32-2.3,2.7-4.57,4.13-6.79-0.11,2.87.42,5.72,0.23,8.59-0.08,1.31-.4,1.9.56,2.95a7.6,7.6,0,0,0,2.29,1.62c0.89,0.44,1.82.79,2.74,1.17,1.57,0.65,1.33.91,1.25,2.58a61.92,61.92,0,0,0,0,8.12c0.41,4.88,5.37,6.31,9.52,6.08,1.92-.1,4.4-0.61,4.25-3-0.07-1.17-.36-2.31-0.33-3.5a12.65,12.65,0,0,1-1.57-2.61,17.94,17.94,0,0,1-1.42-5.88c-0.15-1.72.48-2.75,0.46-4.37q-0.08-6.2.2-12.39c0.06-1.33,1-5.54.06-6.48a7.58,7.58,0,0,1-1.38-1.09c0-1.07.09-2.13,0.19-3.2,0.37-4.14,1.18-8.26,1.08-12.43,0-1.94,0-2.21,1.21-3.72q1-1.21,1.89-2.48a11.79,11.79,0,0,0,2.61-5.44c0.62-3.72.52-7.55,1-11.3,1.09-7.82,2.41-15.35,2-23.29-0.23-4-1.86-7.21-2.8-11-0.45-1.78-1.26-3.6-1-5.48-0.76-1.94-.39-3.43-0.44-5.49-0.09-3.86-1.21-7.58-1.8-11.37a29.78,29.78,0,0,1-.38-5.7c0.73-1.12,1.58-2.15,2.25-3.3a8,8,0,0,0,1.11-5c-0.2-1.58,2.25-2.93,3.39-4.12,2.67-2.79,4.93-5.92,7.41-8.86,1.36-1.61,3-2.64,4.41-4.14,1.1-1.16,2-2.48,3-3.69,0.6-.7,2.66-1.46,2.79-2.3C730.88,177.9,729,178.66,728.37,178.52ZM679.22,230.7c-0.4.63,0,1.8-.77,2.18-0.4-1,.58-1.51.8-2.39a4.11,4.11,0,0,1,1-2.28C680.41,229.18,679.69,230,679.22,230.7Zm27.49-36.22a1.65,1.65,0,0,0,0-.18l0.11,0Zm-11.56-32.43a4.67,4.67,0,0,1,.6,2.43A6.41,6.41,0,0,1,695.16,162.05Zm0.35-1.79-1.24-1.54A2.64,2.64,0,0,1,695.5,160.26Zm-2.73-2.38c-0.75-.45-1.07-1.36-1.79-2A3.25,3.25,0,0,1,692.77,157.88Z" transform="translate(16.23 -59.93)"/>
        </g>
        <g id="man4">
          <path class="cls-3" d="M590.73,202.38c-0.42-.22-1,0.44-1.45.49,0.47-.79,1.34-1.45,1.31-2.47-0.06-1.81-.94-0.14-1.43.17a3,3,0,0,0-.49-1,44.18,44.18,0,0,1-3.8,3.86c-1,1-2.39,1.09-3.51,2-1.76,1.45-2.9,3.58-4.89,4.76-4.91,1-10.54-.66-15.21,1.41-1.5.67-1.22,0.28-2.43-.83-0.9-.83-1-2.06-1.8-2.75a18.23,18.23,0,0,1-3.3-4.25,10.12,10.12,0,0,0-4.15-4.07,0.55,0.55,0,0,0,0-.12,3.41,3.41,0,0,0-.32-0.21,0.8,0.8,0,0,1-.06-1,7.5,7.5,0,0,1,.65-5.43c0.11,0.12,0,.48.32,0.36,0.73-1,.38-2.89.65-4.29,1.78-3.76,1.11-8.43.06-12.31-1.49-2.65-3.16-5.6-5.75-6.8-2.27-1.34-4.8-.77-7.21-0.5,0.14-.54-0.48-0.57-0.75-0.42-0.55,1-1.32-.21-1.89.76-0.29-2.22-.6-4.44-0.83-6.66-0.19-1.85-.33-3.71-0.38-5.57a1.79,1.79,0,0,0,.85-2.05c1.18-.74,2.09-1.84,3.31-2.53,1-.58,1.81.16,2.85-0.37,0.23-2.31-2.19-2-3.75-1.93,1.7-2.44,1.56-5.69,2.78-8.34-0.16-1.31.62-2.49,0.91-3.72,0.43-1.8.06-1.27-1-1.36a13.49,13.49,0,0,0,.48-1.57c-1.79-.32-2.27,1.4-2.9,2.66,0-.73.49-1.32,0.48-2.06C535,136,535,142,533.21,143.53c0-1.28.71-2.78,0.18-4-0.6-1.42-1.25.1-1.29,0.79-0.14,2.68-1.23,5.33-2,7.9-0.43,1.38-.84,2.76-1.21,4.16,0.27,1.11.61,1.61-.25,2.33-0.63.53,0.29,1.6,0.13,2.14,0,1.45-.15,2.89-0.29,4.34-0.51,5.46-1.48,11.05-.87,16.54a6.37,6.37,0,0,0-.22,1.09,9.2,9.2,0,0,1,.19,3.31,3.78,3.78,0,0,1,.49,1.48,28.71,28.71,0,0,1-.82,4.38c-0.32,1.23-.69,2.45-1.07,3.67q-0.28.9-.55,1.81-0.5.4-1,.85c-0.44,2.67-1.33,5.24-1.8,7.9a8.79,8.79,0,0,0,1.23,7c2.24,3.91,4.91,7.57,7,11.59a34.77,34.77,0,0,1,2.61,6.66c0.6,2.21,1.49,4.76,1.4,7a19.72,19.72,0,0,0,0,3.69c-0.32.94-1.08,1.83-1.47,2.78-1,2.52-2.29,4.94-3.41,7.42-3.87,8.52-3.33,17.47-2,26.52s-1.18,18.57-3.46,27.45c-1.08,4.17-2,8.32-3.1,12.46-0.35,1.27-.86,1.72.43,2.41,0.89,0.47,1.79.92,2.69,1.37,1.5,0.74.77,3.64,0.78,5.29a16.43,16.43,0,0,1-1.11,6.58c-0.57,1.47.2,2.78-.13,4.37-0.69,3.39-2.13,7-1.41,10.52s5.06,6.66,8.57,5c2.78-2.67.6-7.68,0.28-10.92-0.26-2.58-.37-5.17-0.53-7.75-0.11-1.79-1-4.12-.48-5.69s0.8-5.1,2.35-5.56,1.82-4.14,2.2-5.49c2.54-9,4.06-18.16,6.78-27.07,1.43-4.67,1.26-9.93,1.78-14.79,0.47-4.43,1.06-8.86,1.88-13.25,1.08,0.16.94,1.66,1.21,2.42a33,33,0,0,1,1.75,3.21,56.94,56.94,0,0,1,3,8.13c1.65,5.5,2.82,11.14,4.42,16.66,0.46,1.59,1.26,3.16,1.06,4.81-0.17,1.42-.34,2.84-0.51,4.26-0.38,3.35-.71,6.72-0.82,10.1-0.07,2.33-.87,8.13.94,9.82,1.21,1.13,2.11,1,2.26,2.78a26.12,26.12,0,0,1,.3,4.51c-1.29,2.74-2.35,5.74-1.74,8.8,0.49,2.44-.85,5,0.47,7.37,1.1,1.94,3.67,2.11,5.55,1.4,2.43-.92,3.29-2.9,2.33-5.35s-2-4.5-2.49-7.1c-0.35-2.06,1-3.56-.14-5.85,0.2-1.37.35-4,1.46-4.71a6.38,6.38,0,0,0,1.94-2.11,7.71,7.71,0,0,0,.94-3c0-.06.17-2.6-0.13-1.57,0,0-.09-1.51-0.09-1.65a0.71,0.71,0,0,0,.3.24c-0.05,0,.16-4.35.15-4.65a35.66,35.66,0,0,1,.07-5.92c0.33-2.22.9-4.39,1.19-6.62a19.47,19.47,0,0,0-.57-6.58c-1.61-8.73-1.06-17.68-2.2-26.46-0.6-4.58-2.31-8.75-3.41-13.22-0.5-2-.81-4.11-1.21-6.05-0.62-1.79-.19-3.4-0.33-5.26-0.27-3.65-2-6.76-3.55-10a22.47,22.47,0,0,1-1.79-5.07c-0.45-2.19.77-3.21,1.8-5,2.48,1.71,7.31.51,10.12-.22,3.65-1,7-2.69,10.46-4.16,1.8-.76,3.76-0.77,5.12-2.19,1.19-1.23,2.16-2.7,3.66-3.59a7.35,7.35,0,0,1,2.84-4.08A1.12,1.12,0,0,0,590.73,202.38Zm-53.29-63.8h0Z" transform="translate(16.23 -59.93)"/>
        </g>
        <g id="man3">
          <path class="cls-4" d="M756.46,119.42h0Z" transform="translate(16.23 -59.93)"/>
          <path class="cls-4" d="M758.52,128.91h0Z" transform="translate(16.23 -59.93)"/>
          <path class="cls-4" d="M758.23,129.06h0Z" transform="translate(16.23 -59.93)"/>
          <path d="M814.77,198.56c-0.46-7-3.18-14-4.62-20.85a75.36,75.36,0,0,1-1.43-23.81c0.81-4.71,1.84-9.37,2.87-14,0.84-3.76,2.82-8.78,2.41-12.63a129.16,129.16,0,0,1-.7-23.47A66.42,66.42,0,0,1,814.87,93c-0.58-3.31-.31-6.75-0.34-10.1a28.65,28.65,0,0,0-.46-5.7c-0.33-1.58-.9-2.53-0.77-4.16,0.1-1.24.29-3-.58-4.05-0.64-.73-3,0.06-4.1-0.37s-0.93-.94-2.21-0.28c-0.92.47-1.32-.65-1.86-1.28A47.58,47.58,0,0,1,801,62.56c-0.79-1.18-1.62-2.78-3.26-2.62-1.17,1.36.29,2.76,0.91,3.92-0.85-.75-1.41-2.44-2.78-2.16-1.14.64,0.18,3.09,0.49,3.72,1.28,2.56,3.77,6.75,2,9.53-1.33-2.86-8-1.73-4.63.81,1.57,1.19,2.94,2.43,4.46,3.71a13.12,13.12,0,0,0,3.28,1.85c-0.27.87-.49,1.75-0.68,2.64a29.27,29.27,0,0,0-.65,6.93c-0.14,1-.79,1-0.85,2.21a9.51,9.51,0,0,1-.61,2.71c-0.59,1.67-1.17,4.51-3.31,3.1-1.22-.81-1.59-2.52-2.11-3.82,1,0.76,2.15,1.92,3.5,1.88-0.51-1.69-.21-1.86-1.72-2.77a9.37,9.37,0,0,1-2.16-1.83,24.29,24.29,0,0,1-3.38-5.64c-0.9-1.86-1.82-4.37-3.46-5.62a10.85,10.85,0,0,0-6.23-1.9,21.59,21.59,0,0,0-4.61.35c-0.88.44-1.66,1.07-2.58,1.44-2-.7-3.52-0.59-5,1a20.8,20.8,0,0,0-3.92,5.68,14.76,14.76,0,0,0-1,3.37c-0.25,1.5-1.36,1.83-2.57,2.56,0.59,0.76.54,2,1.36,2.58a10.72,10.72,0,0,1-1.86,2.74c-0.47.45-3.43,1.73-3.07,2.55a11.91,11.91,0,0,0,5.17-3.64c-1.24,2.3-2.11,5.25-4.94,5.74,0.51,1.08,2.55,1,3.25.22,0,1-2.41.71-2.42,1,0,0.71-.35.26-0.94,0.45s0.07,1,0,1.29c1.43,0.5,2.71-.5,4-1a7.54,7.54,0,0,1-3.31,2.33c1.49,0.48,2.83,1.37,4.35,1.74-0.41.91-1.48,1-2.16,1.6,1.43,0.39-.67,1-0.7,1.39s2.25-1.16,2.38-1.29c0.85-.81,1.83-1.43,1.69.35s-2.18,2.95-2.35,4.82c0.44-.47,1.17-1.45,1.87-1.46-0.11.68,0.49,1.51-.34,1.74-0.44.13-1.21,0.1-1.28,0.78,1.47,0.71,4.51.64,5.68-.78,0.24,0.92-.92.83-1,1.45s0.68-.32.7,0.2a1.86,1.86,0,0,1-1.84.11c0.23,1.19,1.74,1.72.19,2.47-1.25.6-2.46,1.27-3.74,1.8-2.79,1.16-5.47,1.26-8,3.09a43.73,43.73,0,0,0-5.93,5.56c-1.5,1.56-3.87,4.4-6.08,4.71,0.47-2.84-.31-6.84,1.47-9.26,2.8-.86,4.77-3.41,6.22-6,0.75-.91,6.07-7.2,2.19-6.51-1.24.22-2.25,1.23-3.22,2-0.49.73-.82,2-1.8,2.11-2.36.33,0.72-7.38,1.14-8.4a12.29,12.29,0,0,0,1.09-4.44c0-1.43-.93-0.93-1.07-1.91-0.32-2.36-4.36,4.36-4.54,4.67-1,1.78-2.08,3.52-3.06,5.32-0.62,1.15-.5,1.65-1.68,1.77a1.07,1.07,0,0,0-1.1.85c-0.21.66-.18,1.41-0.9,1.7a1.61,1.61,0,0,0-1.25,1.15c-0.45,2-2.72,1.29-3.15,3.34-0.77,3.66-1.53,7.33-2.18,11-0.71,3.93-1.3,7.88-1.72,11.85-0.29,2.74,0,8.77,3,9.86a5.45,5.45,0,0,1,1.39,1c0.65,0.5,1.12,0,1.89,0,1.7,0,3.39-1,5-1.53,3.21-.95,6.64-1.31,9.66-2.79a29.78,29.78,0,0,1,8.86-3c4-.56,3.5,2.85,4.63,5.66,1.63,4,1.82,8.39,2.44,12.68,0.59,4.06,1.2,8.12,1.39,12.22,0.42,8.75-1.7,17.32-3.07,25.9-0.68,4.25-2.09,8.45-2.93,12.7-0.79,4-1.4,7.92-1.85,12-0.48,4.33-.92,8.67-1.66,13-0.63,3.64-2,7.12-2.5,10.74a27.05,27.05,0,0,0-.37,6.81c0.15,1.35.34,2.83,0.38,4.19,0.08,3.49,3.73,5.93,4.17,9.22,1.13,8.5,6.1,15,9.29,22.63a59,59,0,0,0,2.75,6,21.13,21.13,0,0,0,1.45,2.29c0.75,1,.39,1.57.25,2.83a41.71,41.71,0,0,0,.32,12,30.56,30.56,0,0,0,1.63,5.85,21.53,21.53,0,0,0,1,2.14,11.67,11.67,0,0,0,2.73.06,10.34,10.34,0,0,0,7.7-4.33,5.39,5.39,0,0,0,3.35,5.48c1.59,0.71,1.41,1,1.48,2.82,0,1.11-.12,2.11,1,2.31,2.2,0.38,15.54,1.75,15.88-.67,0.21-1.49-.6-3.08.82-3.7s1.87-1.92,1.95-3.57c0.15-3.14-.65-6-0.07-9.1,1.15-6.2,1.34-12.73,1.92-19,0.63-6.84,0-14,0-20.82,0-6.63-.08-13.26-0.46-19.88a32.24,32.24,0,0,1-.33-4.5c-0.42-1.34-1.47-3.24-.81-4.47,1.12-2.07,1.27-5.21,1.34-7.5,0.2-6.11,1.34-12.09,2.14-18.12,0.56-4.26.87-8.51,1.43-12.75A57.61,57.61,0,0,0,814.77,198.56Zm-16-134.25h0Zm0.27,0.61h0Zm1.64,2.59c-0.37-.46.42,0.42,0,0h0ZM801,68c0-.38.67,1.32,0,0h0ZM760,102.3c0-.82,1.09-1.86,1.34-3C761.67,100.54,760.47,101.41,760,102.3Zm1.81-4.76h0Zm1.19,17c0.79-.4.89-1.57,2.15-1.45A1.91,1.91,0,0,1,763,114.51ZM785.8,277a27.3,27.3,0,0,0-6.07-13.63c3.08-4.48,3.1-10.75,4.31-16C787.92,256.74,786,267.13,785.8,277Zm6-165c0.67-.51.55,0.77,0,0h0Zm2.47-9.25h0Zm-0.56-.46h0Zm0.86,6c-0.34,0,0-.55.15-0.6-0.42-.4-1.33.62-1.69-0.19,0.77-.45,1.44-1.34,2.43-1C795.31,107.21,794.79,107.65,794.58,108.3Zm-0.1-2h0Zm0.07-3.3h0Zm0.28,0.16h0Zm1.25,0.93c-0.4-.06-0.58-0.85-0.7-0.88a1.84,1.84,0,0,0,.86.13C796.19,103.64,796.13,103.89,796.08,104.14Zm0.47-2.24a6.34,6.34,0,0,1-2.1-.8,7.5,7.5,0,0,1,.17-1c0.83,0.09,1.36.76,2.25,0.65A7,7,0,0,0,796.55,101.9Z" transform="translate(16.23 -59.93)"/>
        </g>
        <g id="man2">
          <path d="M680.85,212.26c0.1-.21.45-0.5,0.24-0.7a2.37,2.37,0,0,1-.66.55,5.11,5.11,0,0,1-4.4-4.68c0.23-.63.09-1.44,0.28-2.08,0.86,0.46.2,1.65,0.61,2.31,0.44-.15.19-0.6,0.51-0.81,0.15,0.2.2,0.62,0.46,0.57,0.36-.5,0-1.35.08-1.95a8.83,8.83,0,0,0-5.36-6.61c0.23-.54-0.59-1.29-0.37-1.84a1.06,1.06,0,0,0,.82-0.12c-0.5-1.16-1.85-1.35-2.66-2.17,0-.56-0.31-1.26-0.3-1.81a1.48,1.48,0,0,0,1.35-.19c-0.54-.71-1.5-0.48-2.08-1.09-0.64-1.95-2.08-2.69-3.06-3.57,1.2-.06,2.09.56,3.22,0.67-0.28-.88-1.17-0.93-1.46-1.44a7.06,7.06,0,0,1,2.22,1c0.46,0.34.6,1.38,1.14,1.56a4.22,4.22,0,0,0-2.72-3.51,3,3,0,0,1-1.69-.05,4.12,4.12,0,0,0,1.14-1.1c0.65-.2,1.33-0.35,2-0.49s1.43,0,1.79-.54a5.61,5.61,0,0,0-2.26.09c-0.28-.51-1,0-1.37-0.36a1.31,1.31,0,0,1-.38.33c-0.69-.53-1.8-0.16-2.73-0.17-0.11,0-.15-0.27-0.32-0.19a8.46,8.46,0,0,1-4.21-2.83c0.81,0.25,1.56.6,2.36,0.86s1.6,0.77,2.49.38a2,2,0,0,0-1.56-.54,12.66,12.66,0,0,1-4.56-2.27c-0.48-.79-1-1.48-1.47-2.3,0.56,0.18,1.22.16,1.79,0.32a7.57,7.57,0,0,1,1-.11c0.26-.11.91,0,0.78-0.41-0.86-.07-2.06.1-2.53-0.48,0.36-.17.6-0.07,1-0.23-0.34-.57-1-0.4-1.56-0.54a4.59,4.59,0,0,1-1.4-.78c0.8,0.1,2,.41,2.73-0.33a7.18,7.18,0,0,1,2.44,3.24,1.83,1.83,0,0,0,.61,1.14c0.14-1.41-2-3.65-1.69-5.07a4.21,4.21,0,0,0,1.62-.48c-0.12-.43-0.48-0.32-0.8-0.32a3.38,3.38,0,0,1-.94,0,4.85,4.85,0,0,1-1.74-.35,13.15,13.15,0,0,0-2.79-1.69c-1.11-.24-2.1-0.73-3.21-1a23.67,23.67,0,0,1-3.45-.45,18.06,18.06,0,0,0-1.93-1,9.82,9.82,0,0,0-.93-0.83,13.26,13.26,0,0,0-1.92-2.12,0.46,0.46,0,0,0-.41-0.35,10.28,10.28,0,0,0-3.21-1.79c-0.1-.14-0.26-0.15-0.36-0.3-1.93-.74-3.78-0.17-6.13,1,0,0-.07,0-0.07,0s0.11,0,.09-0.09a4.26,4.26,0,0,1-1,.6,4.58,4.58,0,0,0-1.86,0,5.6,5.6,0,0,0-2.5,2.29,7.9,7.9,0,0,1-.79,2.21,4.37,4.37,0,0,1-.43,1.34,5.07,5.07,0,0,1-1.69,1.31,1.34,1.34,0,0,0-.34.75c0.41,0.24,1-.24,1.54-0.2a29,29,0,0,0-1.89,5.15c-1.87.77-3.62,1.81-5.49,2.62-2.16.94-5,1.81-5.93,4.34-0.8,2.19,4.17,4.85,5.53,6q2.68,2.29,5.23,4.66a0.57,0.57,0,0,0-.18.62,1.1,1.1,0,0,0,.54-0.29l1.26,1.21-0.07.23,0.21-.1,1,1c-0.64,1.63-1.1,3.34-1.78,5a5.27,5.27,0,0,0,0,1.49c0.13,0,.24-0.35.22-0.08,0.23-.09.18-0.31,0.41-0.4,0-1.65.33-3.4,1.4-4.41-0.64,2.67.17,6.47,1.08,9.44a5.42,5.42,0,0,1-1.12,1,5,5,0,0,1-.55.51,2.55,2.55,0,0,0-.36.2c0,0.1.1,0.44,0.06,0.16s0.11,0.07.12,0.14a9.69,9.69,0,0,0,1.72-.88c0.12,0.05,0,.27.26,0.21,2.41-1.36,2-4,3.12-6A2.58,2.58,0,0,1,633,206c0.35,0.89.36,1.39,0.7,2.22a8.46,8.46,0,0,0,2.11,2.68c0.17,0.31.38,0.56,0.56,0.84l0.36,1a7.24,7.24,0,0,1-.09,1.95,8.72,8.72,0,0,0-.27,1.77c1.08-.44,1.08-1.6,1.2-2.66a26.15,26.15,0,0,0,2.41,4l0,0a10.37,10.37,0,0,1-.21,1,5.44,5.44,0,0,1-.64,3c-0.1.34-.69,0.47-0.45,1a6.71,6.71,0,0,0,2.28-3.54,19.75,19.75,0,0,1,2.46,4.54c1.21,3.42-.13,4.34-2.18,7a41.75,41.75,0,0,0-4.87,8.73c-1.27,2.83-3.35,5.74-4.31,8.64a24.36,24.36,0,0,1-4.18,7.66,4.55,4.55,0,0,1,4,2c0.78,1,1,.65,1.37,2.08s0.75,3.12,1.14,4.67c1.54,6.19,3.21,12.34,4.73,18.53q0.58,2.35,1.12,4.69a17.83,17.83,0,0,0-.55,3.18,14.15,14.15,0,0,0,.69,6.48c1,2.36.44,4.65,0.33,7.21a33.58,33.58,0,0,0,.83,8c1.08,5.43,2.88,10.69,4.13,16.08a50.73,50.73,0,0,1,1.27,8.16c0.11,1.81-.89,5.84.19,7.24,0.73,1-1.28,6.31-1.58,7.65-0.41,1.85-2.19,4.81-.66,6.33,2,2,7.63,2.57,9-.55,0.42,3.77,6.79.28,8.61-.41,3.25-1.23,1.11-4.78,1.44-7.32-2-2.81-1.21-7-1.24-10.21-0.37-1.11-1.53-1.53-2.51-1.94-1.83-.76-1.93-1.76-2.18-3.64-1-7.62.12-15.37-1-23a36.8,36.8,0,0,0-3.05-10.29,25.05,25.05,0,0,0-2.61-4.35c-1.33-1.76-.61-3.05-0.68-5.23,2.72-7.18,7.71-13.22,10.67-20.3a84.6,84.6,0,0,0,3.78-11.1q0.72-2.73,1.26-5.51c0.37-1.89,1.36-3.51,1.66-5.5,1-6.8,5-12.87,7-19.47,0.9-3,2.85-8.34,1.38-11.19-0.82-1.6-1.58-3.23-2.32-4.87,0.41,0.11.82,0.21,1.24,0.3,0.48-.14,1.23,0,1.47-0.55,0,0-.08,0,0-0.05-0.07-.28-0.37,0-0.57,0s-0.37-.05-0.6,0a9,9,0,0,1-2.41-2.14,15.93,15.93,0,0,0,.24-5.22,1.34,1.34,0,0,1-.19-0.86,9.72,9.72,0,0,1,1.54,0c0.29,1.73-.07,3.16.79,5.15a7.52,7.52,0,0,0,5.32,3c0.27-.06.53-0.07,0.56-0.33S681,212.48,680.85,212.26ZM667,187.64c-0.1.25-.33-0.07-0.53,0.07C666.52,187.52,666.84,187.62,667,187.64Zm-40.44,16.15a0.79,0.79,0,0,1,0-.74C626.79,203.08,626.47,203.56,626.53,203.79Zm0-.94h0Zm0-.13c0-.29.24-0.17,0,0h0ZM654,357.39h0Zm0.15,0.31h0Zm-1.08-17.32c0.43,3,1.26,5.95,1.49,9a40.65,40.65,0,0,1,.21,5.09c-0.23,1.09-1.15,1.74-1.08,2.94-0.41-3.15-1.13-6.29-1-9.48,0-1.5.68-2.93,0.54-4.4s-0.72-3-.89-4.52C652.74,338.68,652.76,340.29,653.12,340.38Zm-0.31-2c-1.3-1.54-.73-4.94-0.93-7.58C652.55,333,652.36,336,652.81,338.37Zm-1.08-8c0.18-.61.18,0.61,0,0h0Zm20.66-125.7a5.85,5.85,0,0,1,.63,1.87,9.27,9.27,0,0,0-1.75-2.2C671.65,204.4,672,204.55,672.39,204.63ZM657.9,176a1,1,0,0,1-.35-0.12C657.58,175.75,657.85,175.89,657.9,176Zm-2.82-4.09a35.54,35.54,0,0,1,3.63,1.94C657.32,174,656.15,172.82,655.08,171.93Zm3,0.25c-0.21.2-.56-0.15-0.75-0.34A2.28,2.28,0,0,1,658.09,172.18Zm-1.44-.7h0Zm-2.09-.46c0.48,0,.82.38,1.28,0.46,1,0.9,2.31,1.21,3.42,1.89-1.79-.4-3.25-1.52-4.84-2.36A0.09,0.09,0,0,1,654.56,171Zm-29.25,14.76c0,0.07,0,.13,0,0.2l-0.21-.1Zm0.44,0.4c0-.21,0-0.41-0.05-0.62l0.38-.22c0.09,0.39.2,0.79,0.29,1.19C626.16,186.41,626,186.29,625.75,186.18Zm1.19-1.37a11.15,11.15,0,0,1,.07,1.67,3.49,3.49,0,0,1-.46-1.42Zm2.8,22.93c-1.1-3-.44-5.48.33-7.8l1.09,1.16c0,1.79-.83,3.32-1,5a1.17,1.17,0,0,0,.29.27A4.15,4.15,0,0,1,629.73,207.74Zm5.15-2.41c0.15,0.17.31,0.34,0.46,0.52,0.21,0.56.38,1.18,0.6,1.75C635.12,207.34,635,206.25,634.89,205.33Zm34,19.84c-0.3,4.1.73,9.53-1.7,13.15a38.07,38.07,0,0,1-.74-11.3c0.3-4,.59-7.92.59-11.9a23.51,23.51,0,0,1,3.25,4.79C669.85,221.68,669,223.31,668.9,225.16ZM672,208.57a8.82,8.82,0,0,0,.5-1.69,2.64,2.64,0,0,1,.25,1c-0.2.33-.37,0.67-0.56,1l0,0.06Z" transform="translate(16.23 -59.93)"/>
        </g>
        <g id="man1">
          <path d="M277.13,346c0.71,3.51,3.25,6.31,4.92,9.33,0.59,1.87.18,4.16,1.76,5.6,0.77,2.64,3.75,3.15,6.2,3.37,2.08-.12,4.32-0.36,5.6-2.07a4.74,4.74,0,0,0-2.32-4.26c-1.3-.56-3,0-4.16-1.07-0.12-1.31,2-1.55,1.65-3a6.43,6.43,0,0,0,1.5-4.22c1.32-5,5.52-8.84,7.71-13.5a25.93,25.93,0,0,0,4.38,1.13c0.12,0.13.09,0.37,0.31,0.37a1.58,1.58,0,0,0,.81-1,40.71,40.71,0,0,1,4.36-5.43c0.11,4.85-.77,9.57-1.31,14.16,0.16,1.21,1.58,1.59,2.45,2.24l1.34,0.16c1.14,3.67,2.4,7.52,1.77,11.78a7.78,7.78,0,0,0-1.51,7.14,4.09,4.09,0,0,1,.27,2.45c1.43,2.05,4,2.4,6.18,2.5,2.7,0,4.91-1.45,7.61-1.19,4.62,2.12,9.91.06,14.33-1.24a4.08,4.08,0,0,0,2.39-1.71,3.42,3.42,0,0,0,.28-1.93c-1.21-1.55-2.79-3.11-4.84-3.15-2.58.4-4.47-1-6.77-1.07-1.39-.34-2.26-2.21-3.78-2.37-0.31-.49-0.84-0.31-1.21-0.62-1.24-1.34-3-1.66-4.15-3.12-0.27-2.67.64-5.78-.29-8.29,1.52-.25.53-1.92,1-2.83a47,47,0,0,0,1.84-16.55c-0.09-3.17-.88-7.05.71-9.91,0-1.86,1.71-3,1.41-5-0.56-2.05.32-4.44,1-6.49,0.42-6.62,4-11.89,4.4-18.53a92.27,92.27,0,0,0,0-15.5c-0.29-5.72,2-10.55,2.87-15.87-0.27-1-.34-2.14-0.52-3.23,0.4-.25,1-0.31.9-1a17.56,17.56,0,0,1-.57-5.59h0.12c2.11,3.27,4.68,6.32,7,9.49,1.49,0.78,2.06-2,3.51-.58a0.91,0.91,0,0,1,1.4.28,1.18,1.18,0,0,0,1.21.69c0.56-.16.87,0.75,1.4,0.9a2.63,2.63,0,0,1,1.21.75l1-.46a12.49,12.49,0,0,0,2.85,4c1,1.21,2.67,1.84,3.25,3.36-0.4.38-1.09,0.25-1.34,0.9,0.53,1.67,2.35,2.36,3.57,3.43,0.87,0.19,1.49-.25,2.39,0a1.67,1.67,0,0,0,1.5-.9c1.15-.28,1.59-1.8,2.83-1.85,1-2,.14-4.32-0.64-6.19-1.3-1.53-3.16-1.68-4.72-2.62-3-1.06-4.37-4.36-6.6-6.41-0.59-.41.19-0.81-0.09-1.34-0.53-.75-1.46-0.59-2-1.12,0.16-.84-1.21-0.75-0.62-1.65-1.24-1.31-3.19-2.12-4-3.9-1.58.18-2-1.56-3-2.4-1.67-2.58-3.65-5.16-5.57-7.68-0.56-.75-1.77-0.72-1.86-1.81-2.17-1.16-3.16-3.55-3.93-5.67,0.25-1.86,1.56-3.57,1-5.81-0.86-5.13-7-6.66-9.29-11-1.08-3-2.35-6.22-5.35-8-0.81-.44-2-0.25-2.54-1a13,13,0,0,1,.11-5.37l2.69-4.84a1.62,1.62,0,0,0-.43-1.64c-0.37-.53-1.58-0.69-1.12-1.56a1.79,1.79,0,0,1,.44-1.06,1.17,1.17,0,0,0,1.21-.9c0.22-.9-0.71-1.68.13-2.39-0.21-.78-0.28-1.71.63-2.08,0.31-1.4.5-3.29-.73-4.32-0.15-.43-0.62-1.12,0-1.49,0.71-.93-0.34-1.46-0.68-2.24-0.37-2.05-1-4-1.47-6a1.75,1.75,0,0,0-.06-1.74c-1.43-.47-1.36-2.05-1.95-3.11-0.89-3-2.16-5.81-2.28-9a5.31,5.31,0,0,0-2.82-3.67c-2-.32-3.26-2.22-5.06-2.84-1-.16-1.15,1.12-2,1.18-1.15.84-1.22,2.82-2.83,2.91a3.17,3.17,0,0,0-2,.89,1.33,1.33,0,0,0,.06,1.4c1.12,0.47.62,2.24,2,2.08l2.08,1.66c1.83,0.22,3.79.91,5.53,0a2.63,2.63,0,0,1,.8,2.24c-0.13,2.64.64,5.25-.39,7.61a29.1,29.1,0,0,1,.58,4.69c0.24,1.68,1.26,3.89-.07,5.31,0.49,0.62-.65.84-0.16,1.49-0.16.53,0.06,1.43-.44,1.93-0.47.13-.81-0.43-1.27-0.53a5.84,5.84,0,0,1-2.55-.58,1.31,1.31,0,0,1,.44-1.11c0.68-.22.43,0.62,0.9,0.65a1.08,1.08,0,0,0,.38-1.4,1,1,0,0,0-1.34-.22,4.32,4.32,0,0,0-1.06.87,2.64,2.64,0,0,0-1.7-1.87c-1.34.43-2.61-.19-3.88,0.24-0.69.28-.62,1-1,1.49S298,178,297.5,178.58l-0.72.63a2.31,2.31,0,0,1-1,.37c-1.43,1.33-2.79,2.93-3,4.91-0.07.15-.15,0.31-0.21,0.46-0.41.44-1-.09-1.61,0.21-0.59.47-1.53,0.8-1.71,1.64a6.8,6.8,0,0,0,.21,2.52c-0.31.31-1,0-1.24,0.21a4.26,4.26,0,0,0-2.4,2c-1.66,3.85,2.19,7.12.13,10.87a1.35,1.35,0,0,1-1.06.52c-0.13.34,0.31,0.25,0.43,0.44a0.62,0.62,0,0,1-.65.3,0.38,0.38,0,0,0,.28.44,1.88,1.88,0,0,0,1.74-1.24c-0.12-.31.25-0.4,0.37-0.62,1.3,1.71,2.91,3.36,2.5,5.69-0.59,1.86-1.54,3.82-1,6l-0.53.59c0,0.25.43,0.13,0.59,0.06s0.25,0.12.43,0.25c0.09,1.37-1.68,1-1.87,2.23,0,2.45,1.95,4.14,3,6.09a5.18,5.18,0,0,1,2,4.95,5.59,5.59,0,0,1-1,1.86,0.47,0.47,0,0,0,.22.44,2.71,2.71,0,0,0,1.71-2.3c0.53-1.86-1-3.33-.79-4.85,0.52,0.56,2.17.69,1.49,1.93-0.5,1.43.71,2.58,1.48,3.58,0.28,0.13.69-.28,0.69,0.25-0.22,2.18-3,3.69-1.66,6.18,0.4,1.06,1.61,1.65,2.29,2.52a0.61,0.61,0,0,0,.31-0.22c-0.27-.87-1.33-1.49-1-2.52a3.23,3.23,0,0,0,1.56-1.27c0.09-.4,0-1,0.53-1.12,0.56,1.06,2.61,1.65,1.7,3.2a1.25,1.25,0,0,0-.31.68c1.18-.4,1.12-1.8,1.5-2.76,0.53,0.56,1.61,1.34,1,2.3s-0.75,1.89-1.75,2.61a1,1,0,0,0,.25.37,6.71,6.71,0,0,0,2.9-3.19c1,0.32,1.89,1.16,2.92.82-0.9-.9-2.89-0.91-3-2.37a2.88,2.88,0,0,0,2.45.6,0.38,0.38,0,0,0,.16-0.53,3.3,3.3,0,0,1-2.76-1.72c-1.49-2.43.85-4.53,0.6-7.08a5.72,5.72,0,0,1,.79-2.94c0.12,0.73.24,1.45,0.36,2.16,1.82,6.84,4.91,13.12,7.4,19.71,0.21,2.11.64,4.16-.17,6.18-1.63,6.61-8.38,11.2-7.5,18.78-0.1,1.71.71,3,1.33,4.54,3.68,4.92,4.79,10.64,5.33,16.85a10.52,10.52,0,0,1-.32,3.08c-0.41,2.76.08,5.37,0.14,8-0.75,1.27.58,3.08-.6,4.25-1.21-.1-1.59,1.36-2.18,2.14-2.25,3.57-5.52,6.54-7.92,10-2.77,3.57-5.08,7.38-8.23,10.73a3.25,3.25,0,0,1,.06,1.65c-2.62,3-3.66,7.94-8.07,9-0.84-.34-1.65.34-2.45,0.52-1.53.58-2.77,1.76-4.26,2.38C276.24,343.53,276.91,344.8,277.13,346Zm12.08-145.33c0,0.22.28,1.12,0,.9A0.86,0.86,0,0,1,289.21,200.66Zm-1.33-3.42h0.22v0.22a3,3,0,0,1,1.18,1.12,2.82,2.82,0,0,0-1,1A6.7,6.7,0,0,1,287.88,197.24Zm1.57-6.33-0.22,1.71-1.71,1.7a1.15,1.15,0,0,1-.31.81,3.38,3.38,0,0,1-.37-2.08,4.21,4.21,0,0,1,1.43-1.92A1,1,0,0,1,289.45,190.9Zm15.67,12.59a4.85,4.85,0,0,1,0-2,2.33,2.33,0,0,1,.24,1.16A3.52,3.52,0,0,1,305.12,203.49Zm-3.84,24.25c0.22-.22,0-1,0.53-0.74a0.19,0.19,0,0,0-.09-0.22h0.16a1.75,1.75,0,0,1-.44,1.06Zm-0.3-2.3a0.7,0.7,0,0,1-.37.59A0.5,0.5,0,0,1,301,225.45Zm-1.57,6.11c0.4,0.35.12,0.84,0.31,1.18-0.56.12-.46-0.5-0.68-0.75A0.34,0.34,0,0,1,299.41,231.56ZM298.46,226c0.16-.34,1-0.78,1-0.06,0,0.31.31,1-.22,1.12A1.65,1.65,0,0,1,298.46,226Zm-1,3.66,0.12-.15h0.16Zm-0.85,1.86-0.06.13c0.43,0.28,0,.71.15,1.12a0.88,0.88,0,0,1-.53.52v-0.16A1.45,1.45,0,0,1,296.64,231.55Zm-1.16-4.63h0.22v0.22Zm-1.85-5.6a0.24,0.24,0,0,1,.28.16A1.58,1.58,0,0,1,294,223l-0.53-.47A1.87,1.87,0,0,1,293.63,221.33Zm-1.33-2.18,0.22-.28C292.55,219,292.48,219.25,292.3,219.15Zm-0.38.59,0.13-.22-0.06.31Zm-2.16-4.23c0.21,0.74-.44,1.55-0.75,2.29l0.16,0.16c0.78-.15,1.18-1.12,1.65-1.71,0.89,1.68-1,2.7-1.28,4.22a5.41,5.41,0,0,1-1.7-3.2C288.17,216.44,289.32,216.44,289.76,215.51Zm-0.43-4.26,0.38-.9A0.74,0.74,0,0,1,289.33,211.25Zm2.05-25.5a22.19,22.19,0,0,0-1,3.29h-0.16a2.57,2.57,0,0,1-.37-2A2.78,2.78,0,0,1,291.39,185.75Zm0.78,22.59a1.17,1.17,0,0,1-.75,1c-0.55-1.37-.39-2.86-0.73-4.23C291.83,205.67,292.11,207.16,292.17,208.34Z" transform="translate(16.23 -59.93)"/>
        </g>
        <path id="Banda" d="M680.5,135.81a26.24,26.24,0,0,0,18.08-8.56S692,120,691.72,97.47c0,0,2.86-7-5.41-8.75s-1.39-.13-1.39-0.13S607.82,77,574.5,78.67c0,0-3,.32-8,10.11,0,0-4.76,12.22-10.78,16.48a65.22,65.22,0,0,0,15.35,12.09s-1.12-3.12,2-8.26c0,0,2.9-7.37.48-11.61,0,0-2.14-3.61,9.18-3.56,0,0,65.06-1.56,94.33,7.81,0,0,6.23,2.19,4.55,7.26,0,0-3,11,1.52,16C683.12,125,687.24,132.42,680.5,135.81Z" transform="translate(16.23 -59.93)"/>
        <path id="Fons" d="M799,210.19V150.71l-4.65,23.12L786.11,196C746.61,194.61,714,220.46,674,215.62c-8-1-16-.94-21.9-7.11s-3.75-16.54-11.69-21.34c-16.9-10.22-37.59,10.15-50.16,18.32-20.77,13.5-28,2.61-48.54-1.92-25.82-5.68-28,18.13-49.63,21.53-36,5.66-65.07-20.58-102.43-5.57-32.09,12.89-73.8,15.34-85.66-26.18-13.35,2.65-24-.32-34.46,9-11.62,10.39-12.16,16.26-31.35,11.15-10.66-2.84-18.46-11.63-29-13.71-11.53-2.29-25.63,3.78-36.43,7.2s-17.71,7.76-27.51.68c-10.88-7.85-8.37-15.6-24.87-17.31-25.34-2.63-48.5,15.08-70.73-4.65-7.25-6.43-9.35-18.6-17.76-22.94C22.3,157.84,10,164-.52,158l0.27,273.9H0V555H800V210Z" transform="translate(16.23 -59.93)"/>
      </g>
    </g>
  </g>
</svg>
